<?xml version="1.0" encoding="UTF-8"?>
<!DOCTYPE svg PUBLIC "-//W3C//DTD SVG 1.1//EN" "http://www.w3.org/Graphics/SVG/1.1/DTD/svg11.dtd">
<!-- Creator: CorelDRAW 2020 (64-Bit) -->
<svg xmlns="http://www.w3.org/2000/svg" xml:space="preserve" width="6.3498mm" height="6.3498mm" version="1.1" style="shape-rendering:geometricPrecision; text-rendering:geometricPrecision; image-rendering:optimizeQuality; fill-rule:evenodd; clip-rule:evenodd"
viewBox="0 0 634.98 634.98"
 xmlns:xlink="http://www.w3.org/1999/xlink"
 xmlns:xodm="http://www.corel.com/coreldraw/odm/2003">
 <defs>
  <style type="text/css">
   <![CDATA[
    .fil0 {fill:#357DFF;fill-rule:nonzero}
   ]]>
  </style>
    <clipPath id="id0">
     <path d="M340.55 525.96l-87.28 0 0 -207.07 -41.16 0 0 -64.56 0 -5.12 41.16 0 0 -34.9c0,-8.96 0.12,-20.36 1.86,-31.99 1.81,-11.52 5.24,-23.39 12.46,-32.81l0 0c7.05,-9.42 15.67,-17.45 26.79,-23.15 11.06,-5.7 24.51,-8.84 41.04,-8.84 0.06,0 0.06,0 0.06,0 52.46,0 74.88,7.44 75.46,7.68l4.08 1.39 -11.94 70.85 -5.47 -1.63 -0.18 0 -0.52 -0.11c-0.47,-0.12 -1.17,-0.35 -2.04,-0.59 -1.8,-0.46 -4.37,-1.04 -7.39,-1.63 -6.06,-1.16 -14.09,-2.44 -21.55,-2.44 -0.05,0 -0.05,0 -0.05,0 0,0 -0.06,0 -0.06,0 -5.53,0 -10.72,0.82 -14.79,2.33 -4.14,1.63 -6.99,3.84 -8.62,6.75 -1.16,1.97 -1.86,4.42 -1.86,7.67l0 41.42 66.08 0 -5.35 69.68 -60.73 0 0 207.07zm-118.31 -266.63l0 49.44 41.16 0 0 207.07 67.02 0 0 -207.07 61.48 0 3.79 -49.44 -65.27 0 0 -51.54c0,-4.77 1.1,-9.07 3.2,-12.68 2.04,-3.6 5.01,-6.51 8.38,-8.49 6.87,-4.19 15.26,-5.7 23.88,-5.7 8.5,0 17.06,1.28 23.58,2.56 2.03,0.47 3.9,0.81 5.47,1.28l8.62 -51.07c-2.74,-0.7 -6.82,-1.51 -12.41,-2.44 -11.7,-1.75 -29.92,-3.61 -55.66,-3.61 -15.31,0 -27.01,2.91 -36.5,7.79 -9.49,4.77 -16.89,11.64 -23.29,20.13l0 0 -0.06 0c-5.65,7.45 -8.85,17.68 -10.48,28.39 -1.63,10.58 -1.75,21.52 -1.75,30.36l0 45.02 -41.16 0 0 0z"/>
    </clipPath>
     <clipPath id="id1">
      <path d="M168.45 73.88l289.62 0 0 495.68 -289.62 0 0 -495.68z"/>
     </clipPath>
 </defs>
 <g id="Capa_x0020_1">
  <metadata id="CorelCorpID_0Corel-Layer"/>
  <g id="_2419307238304">
   <path class="fil0" d="M217.15 254.27l0 5.07 46.27 0 0 -45.08c-0.01,-8.77 0.11,-19.72 1.75,-30.37 1.63,-10.66 4.83,-20.9 10.49,-28.29l0.01 -0.02 0 0c6.4,-8.46 13.8,-15.34 23.3,-20.2 9.5,-4.84 21.23,-7.72 36.53,-7.73 25.74,0 43.93,1.84 55.62,3.65 5.84,0.9 10.06,1.81 12.78,2.47 1.35,0.33 2.34,0.6 2.96,0.78 0.32,0.09 0.54,0.16 0.68,0.2l0.14 0.05 0.02 0.01 0.66 -1.97 -0.67 1.96 0.01 0.01 0.66 -1.97 -0.67 1.96 1.63 -4.79 -5 -0.85 -10.3 60.98 5 0.85 1.41 -4.87c-0.11,-0.03 -4.51,-1.31 -11,-2.59 -6.49,-1.28 -15.04,-2.57 -23.56,-2.58 -8.6,0.03 -17.02,1.47 -23.84,5.62 -3.4,2.08 -6.37,4.92 -8.43,8.53 -2.07,3.6 -3.17,7.91 -3.17,12.66l0 51.58 65.28 0 -3.8 49.45 -61.48 0 0 207.01 -67.01 0 0 -207.01 -41.21 0 0 -54.52 -5.06 0 0 5.07 0 -5.07 -5.07 0 0 64.65 41.2 0 0 207.02 87.29 0 0 -207.02 60.73 0 5.35 -69.72 -66.08 0 0 -41.44c0.01,-3.25 0.7,-5.66 1.82,-7.63 1.68,-2.92 4.52,-5.14 8.63,-6.71 4.08,-1.57 9.3,-2.34 14.85,-2.33 7.49,-0.01 15.52,1.18 21.59,2.38 3.05,0.61 5.61,1.21 7.39,1.66 0.9,0.22 1.6,0.4 2.07,0.53l0.53 0.15 0.16 0.04 5.45 1.59 11.97 -70.84 -4.08 -1.39c-0.58,-0.2 -23.01,-7.7 -75.45,-7.7 -16.57,0 -30.04,3.17 -41.14,8.85 -11.1,5.66 -19.71,13.75 -26.78,23.12l0.01 -0.02c-7.19,9.5 -10.63,21.31 -12.43,32.89 -1.78,11.58 -1.87,23.04 -1.88,31.91l0 34.94 -41.2 0 0 5.07 5.07 0z"/>
   <g style="clip-path:url(#id0)">
    <image x="210.65" y="116.24" width="205.41" height="410.42" xlink:href="facebook_Images\facebook_ImgID1.png"/>
   </g>
   <path class="fil0" d="M217.15 254.27l0 5.07 46.27 0 0 -45.08c-0.01,-8.77 0.11,-19.72 1.75,-30.37 1.63,-10.66 4.83,-20.9 10.49,-28.29l0.01 -0.02 0 0c6.4,-8.46 13.8,-15.34 23.3,-20.2 9.5,-4.84 21.23,-7.73 36.53,-7.73 25.74,0 43.93,1.84 55.62,3.65 5.84,0.9 10.06,1.81 12.78,2.47 1.35,0.33 2.34,0.6 2.96,0.78 0.32,0.09 0.54,0.16 0.68,0.2l0.14 0.05 0.02 0.01 0.66 -1.97 -0.67 1.96 0.01 0.01 0.66 -1.97 -0.67 1.96 1.63 -4.79 -5 -0.85 -10.3 60.98 5 0.85 1.41 -4.87c-0.11,-0.03 -4.51,-1.31 -11,-2.59 -6.49,-1.28 -15.04,-2.57 -23.56,-2.58 -8.6,0.03 -17.02,1.47 -23.84,5.62 -3.4,2.08 -6.37,4.92 -8.43,8.53 -2.07,3.6 -3.17,7.91 -3.17,12.66l0 51.58 65.28 0 -3.8 49.45 -61.48 0 0 207.01 -67.01 0 0 -207.01 -41.21 0 0 -54.52 -5.06 0 0 5.07 0 -5.07 -5.07 0 0 64.65 41.2 0 0 207.02 87.29 0 0 -207.02 60.73 0 5.35 -69.72 -66.08 0 0 -41.44c0.01,-3.25 0.7,-5.66 1.82,-7.63 1.68,-2.92 4.52,-5.14 8.63,-6.71 4.08,-1.57 9.3,-2.34 14.85,-2.33 7.49,-0.01 15.52,1.18 21.59,2.38 3.05,0.61 5.61,1.21 7.39,1.66 0.9,0.22 1.6,0.4 2.07,0.53l0.53 0.15 0.15 0.04 5.46 1.59 11.97 -70.84 -4.08 -1.39c-0.58,-0.2 -23.01,-7.7 -75.45,-7.7 -16.57,0 -30.04,3.17 -41.14,8.85 -11.1,5.66 -19.71,13.75 -26.78,23.12l0.01 -0.02c-7.19,9.5 -10.63,21.31 -12.43,32.89 -1.78,11.58 -1.87,23.04 -1.88,31.91l0 34.94 -41.2 0 0 5.07 5.07 0z"/>
   <g>
    <g style="clip-path:url(#id1)">
     <image x="168.45" y="73.88" width="289.62" height="495.68" xlink:href="facebook_Images\facebook_ImgID2.png"/>
    </g>
   </g>
   <path class="fil0" d="M217.15 254.27l0 0.42 41.62 0 0 -40.43c-0.01,-17.62 0.46,-44.76 13.19,-61.47 13.43,-17.75 31.78,-29.78 63.54,-29.79 25.96,0 44.39,1.86 56.33,3.71 5.97,0.92 10.31,1.85 13.16,2.54 2.85,0.7 4.19,1.15 4.2,1.15l0.13 -0.39 -0.42 -0.07 -10.3 60.98 0.42 0.07 0.11 -0.41c-0.02,0 -17.17,-4.98 -33.26,-4.98 -8.06,0 -15.72,1.44 -21.41,4.93 -5.7,3.49 -9.39,9.1 -9.38,17.23l0 46.93 65.64 0 -4.51 58.74 -61.13 0 0 207.02 -76.31 0 0 -207.02 -41.2 0 0 -59.16 -0.42 0 0 0.42 0 -0.42 -0.43 0 0 60.01 41.21 0 0 207.01 77.99 0 0 -207.01 61.08 0 4.63 -60.43 -65.71 0 0 -46.09c0.02,-7.87 3.49,-13.13 8.98,-16.51 5.48,-3.38 13.01,-4.81 20.97,-4.81 7.96,0 16.23,1.24 22.5,2.48 3.13,0.62 5.77,1.24 7.62,1.7 1.85,0.47 2.9,0.77 2.91,0.77l0.45 0.14 10.45 -61.81 -0.34 -0.12c-0.05,-0.01 -21.96,-7.44 -73.96,-7.44 -31.98,-0.02 -50.69,12.2 -64.21,30.12 -12.97,17.07 -13.35,44.34 -13.36,61.98l0 39.59 -41.21 0 0 0.42 0.43 0z"/>
  </g>
 </g>
</svg>
