<?xml version="1.0" encoding="UTF-8"?>
<!DOCTYPE svg PUBLIC "-//W3C//DTD SVG 1.1//EN" "http://www.w3.org/Graphics/SVG/1.1/DTD/svg11.dtd">
<!-- Creator: CorelDRAW 2020 (64-Bit) -->
<svg xmlns="http://www.w3.org/2000/svg" xml:space="preserve" width="16.9332mm" height="16.9332mm" version="1.1" style="shape-rendering:geometricPrecision; text-rendering:geometricPrecision; image-rendering:optimizeQuality; fill-rule:evenodd; clip-rule:evenodd"
viewBox="0 0 1693.32 1693.32"
 xmlns:xlink="http://www.w3.org/1999/xlink"
 xmlns:xodm="http://www.corel.com/coreldraw/odm/2003">
 <defs>
  <style type="text/css">
   <![CDATA[
    .fil5 {fill:none;fill-rule:nonzero}
    .fil2 {fill:#373435}
    .fil4 {fill:#FFF212}
    .fil3 {fill:#EC268F}
    .fil1 {fill:#00AFEF}
    .fil0 {fill:#EC268F;fill-rule:nonzero}
   ]]>
  </style>
    <clipPath id="id0">
     <path d="M72.94 64.4l1547.46 0 0 1564.52 -1547.46 0 0 -1564.52z"/>
    </clipPath>
   <clipPath id="id1" style="clip-rule:nonzero">
    <path d="M1485.72 202.52c-3.81,-5.2 -10.36,-9.01 -16.91,-9.01l-234.18 0c-11.73,0 -22.36,9.01 -23.71,19.63l-121.6 663.59 -107.43 -663.59c-1.08,-13.1 -13.08,-21 -26.16,-19.63 -13.1,1.08 -20.73,14.18 -19.63,27.26l128.4 798.55c1.37,11.73 11.72,19.63 23.45,19.63 11.73,0 21,-9.28 22.36,-19.63l143.94 -778.92 184.58 0 -251.36 1212.69 -31.36 0 -53.71 0c-36.53,0 -88.88,-15.83 -119.14,-152.95l-217.01 -1087c-1.37,-10.62 -11.73,-21 -23.45,-19.63 -11.73,0 -21.01,7.63 -22.36,19.63l-111.24 667.68 -126.77 -667.68c-1.37,-10.62 -10.63,-19.63 -22.35,-19.63l-234.19 0c-6.55,0 -14.45,3.81 -18.28,9.01 -4.08,5.17 -6.55,13.07 -5.45,19.62l265.82 1259.58c2.45,10.63 13.08,18.25 23.45,18.25l49.88 0 1.1 0 2.73 0 55.06 0c80.99,0 130.87,-59.98 159.5,-189.48l0 -1.35 31.35 -193.3c1.1,-13.1 -6.55,-26.18 -19.62,-27.28 -13.1,-1.35 -24.81,6.55 -26.18,19.37l-31.36 192.21c-29.98,135.77 -77.16,152.95 -113.69,152.95l-55.06 0 -2.73 0 -1.1 0 -31.62 0 -255.17 -1212.69 185.93 0 146.67 778.92c1.1,10.35 11.73,19.63 23.45,19.63 11.73,0 22.36,-7.9 23.44,-19.63l111.24 -671.78 192.2 961.6 0 1.35c27.53,122.97 77.16,185.66 155.68,189.48l4.1 0 5.17 0 53.71 0 50.98 0c10.36,0 19.63,-7.62 22.36,-18.25l261.74 -1260.95c1.08,-6.55 -1.37,-13.08 -5.47,-18.25z"/>
   </clipPath>
 </defs>
 <g id="Capa_x0020_1">
  <metadata id="CorelCorpID_0Corel-Layer"/>
  <g id="_2249840750704">
   <g style="clip-path:url(#id0)">
    <image x="72.94" y="64.4" width="1547.46" height="1564.52" xlink:href="favicon2_Images\favicon2_ImgID1.png"/>
   </g>
  </g>
  <path class="fil0" d="M1485.72 202.52c-3.81,-5.2 -10.36,-9.01 -16.91,-9.01l-234.18 0c-11.73,0 -22.36,9.01 -23.71,19.63l-121.6 663.59 -107.43 -663.59c-1.08,-13.1 -13.08,-21 -26.16,-19.63 -13.1,1.08 -20.73,14.18 -19.63,27.26l128.4 798.55c1.37,11.73 11.72,19.63 23.45,19.63 11.73,0 21,-9.28 22.36,-19.63l143.94 -778.92 184.58 0 -251.36 1212.69 -31.36 0 -53.71 0c-36.53,0 -88.88,-15.83 -119.14,-152.95l-217.01 -1087c-1.37,-10.62 -11.73,-21 -23.45,-19.63 -11.73,0 -21.01,7.63 -22.36,19.63l-111.24 667.68 -126.77 -667.68c-1.37,-10.62 -10.63,-19.63 -22.35,-19.63l-234.19 0c-6.55,0 -14.45,3.81 -18.28,9.01 -4.08,5.17 -6.55,13.07 -5.45,19.62l265.82 1259.58c2.45,10.63 13.08,18.25 23.45,18.25l49.88 0 1.1 0 2.73 0 55.06 0c80.99,0 130.87,-59.98 159.5,-189.48l0 -1.35 31.35 -193.3c1.1,-13.1 -6.55,-26.18 -19.62,-27.28 -13.1,-1.35 -24.81,6.55 -26.18,19.37l-31.36 192.21c-29.98,135.77 -77.16,152.95 -113.69,152.95l-55.06 0 -2.73 0 -1.1 0 -31.62 0 -255.17 -1212.69 185.93 0 146.67 778.92c1.1,10.35 11.73,19.63 23.45,19.63 11.73,0 22.36,-7.9 23.44,-19.63l111.24 -671.78 192.2 961.6 0 1.35c27.53,122.97 77.16,185.66 155.68,189.48l4.1 0 5.17 0 53.71 0 50.98 0c10.36,0 19.63,-7.62 22.36,-18.25l261.74 -1260.95c1.08,-6.55 -1.37,-13.08 -5.47,-18.25z"/>
  <g style="clip-path:url(#id1)">
   <g id="_2249840751520">
    <polygon id="1" class="fil1" points="141.11,141.11 846.67,141.11 964.67,1075.83 708.9,1004.66 601.45,1062.45 528.79,954.54 141.11,846.67 "/>
    <polygon class="fil2" points="846.67,141.11 1552.23,141.11 1552.23,846.67 1031.88,1083.15 "/>
    <polygon class="fil3" points="141.11,740.83 440.69,930.02 582.07,1080.41 732.86,1056.82 846.67,1106.21 846.67,1552.23 141.11,1552.23 "/>
    <polygon class="fil4" points="819.38,823.52 929.7,914.41 1090.06,1122.83 1276.93,919.43 1552.23,621.78 1552.23,1552.23 846.67,1552.23 "/>
   </g>
  </g>
  <path class="fil5" d="M1485.72 202.52c-3.81,-5.2 -10.36,-9.01 -16.91,-9.01l-234.18 0c-11.73,0 -22.36,9.01 -23.71,19.63l-121.6 663.59 -107.43 -663.59c-1.08,-13.1 -13.08,-21 -26.16,-19.63 -13.1,1.08 -20.73,14.18 -19.63,27.26l128.4 798.55c1.37,11.73 11.72,19.63 23.45,19.63 11.73,0 21,-9.28 22.36,-19.63l143.94 -778.92 184.58 0 -251.36 1212.69 -31.36 0 -53.71 0c-36.53,0 -88.88,-15.83 -119.14,-152.95l-217.01 -1087c-1.37,-10.62 -11.73,-21 -23.45,-19.63 -11.73,0 -21.01,7.63 -22.36,19.63l-111.24 667.68 -126.77 -667.68c-1.37,-10.62 -10.63,-19.63 -22.35,-19.63l-234.19 0c-6.55,0 -14.45,3.81 -18.28,9.01 -4.08,5.17 -6.55,13.07 -5.45,19.62l265.82 1259.58c2.45,10.63 13.08,18.25 23.45,18.25l49.88 0 1.1 0 2.73 0 55.06 0c80.99,0 130.87,-59.98 159.5,-189.48l0 -1.35 31.35 -193.3c1.1,-13.1 -6.55,-26.18 -19.62,-27.28 -13.1,-1.35 -24.81,6.55 -26.18,19.37l-31.36 192.21c-29.98,135.77 -77.16,152.95 -113.69,152.95l-55.06 0 -2.73 0 -1.1 0 -31.62 0 -255.17 -1212.69 185.93 0 146.67 778.92c1.1,10.35 11.73,19.63 23.45,19.63 11.73,0 22.36,-7.9 23.44,-19.63l111.24 -671.78 192.2 961.6 0 1.35c27.53,122.97 77.16,185.66 155.68,189.48l4.1 0 5.17 0 53.71 0 50.98 0c10.36,0 19.63,-7.62 22.36,-18.25l261.74 -1260.95c1.08,-6.55 -1.37,-13.08 -5.47,-18.25z"/>
 </g>
</svg>
