<?xml version="1.0" encoding="UTF-8"?>
<!DOCTYPE svg PUBLIC "-//W3C//DTD SVG 1.1//EN" "http://www.w3.org/Graphics/SVG/1.1/DTD/svg11.dtd">
<!-- Creator: CorelDRAW 2020 (64-Bit) -->
<svg xmlns="http://www.w3.org/2000/svg" xml:space="preserve" width="16.9332mm" height="16.9332mm" version="1.1" style="shape-rendering:geometricPrecision; text-rendering:geometricPrecision; image-rendering:optimizeQuality; fill-rule:evenodd; clip-rule:evenodd"
viewBox="0 0 1693.32 1693.32"
 xmlns:xlink="http://www.w3.org/1999/xlink"
 xmlns:xodm="http://www.corel.com/coreldraw/odm/2003">
 <defs>
  <style type="text/css">
   <![CDATA[
    .fil7 {fill:#FEFEFE}
    .fil4 {fill:#FEFEFE}
    .fil0 {fill:#373435}
    .fil3 {fill:#FFF212}
    .fil1 {fill:#EC268F}
    .fil2 {fill:#0098DA}
    .fil6 {fill:#39CE35}
    .fil8 {fill:#373435;fill-rule:nonzero}
    .fil5 {fill:#39CE35;fill-rule:nonzero}
   ]]>
  </style>
   <clipPath id="id0">
    <path d="M1183.32 1088.17l0 0 0 0 0 0 0 0c7.25,-20.44 9.67,-39.12 9.67,-50.09 0,10.97 -2.42,29.65 -9.67,50.09zm-433.46 -246.83c0,-7.15 2.54,-13.38 5.21,-17.84 2.8,-4.56 5.73,-7.81 7.89,-10.5 8.27,-10.13 15.52,-16.73 22.14,-24.45l0 0c-6.62,7.72 -13.87,14.32 -22.14,24.45 -2.16,2.69 -5.09,5.94 -7.89,10.5 -2.67,4.46 -5.21,10.69 -5.21,17.84zm35.11 -52.69c3.82,-4.37 6.49,-7.44 8.4,-10.13 2.03,-2.79 3.56,-5.21 5.6,-9.48l0.12 -0.28 0.13 -0.19c0.64,-1.2 0.76,-2.13 0.76,-3.53 0,0 0,-0.09 0,-0.18 0,0.09 0,0.18 0,0.18 0,1.4 -0.12,2.33 -0.76,3.53l-0.13 0.19 -0.12 0.28c-2.04,4.27 -3.57,6.69 -5.6,9.48 -1.91,2.69 -4.58,5.76 -8.4,10.13l0 0 0 0z"/>
   </clipPath>
   <clipPath id="id1">
    <path d="M1183.33 1088.19c0,-0.01 0.01,-0.04 0.01,-0.05l0 0c0,0.01 -0.01,0.04 -0.01,0.05l0 0z"/>
   </clipPath>
 </defs>
 <g id="Capa_x0020_1">
  <metadata id="CorelCorpID_0Corel-Layer"/>
  <path class="fil0" d="M1191.74 853.09l411.25 0c-6.78,375.44 -309.83,678.49 -685.27,685.28l-2.11 0.03 0 -415.44c149.92,-1.16 271.62,-120.78 276.13,-269.87z"/>
  <path class="fil1" d="M842.72 141.92c2.87,0 5.72,0.07 8.58,0.1l0 424.03c-153.79,0 -278.47,124.68 -278.47,278.47l-428.36 0c0,-1.43 -0.05,-2.85 -0.05,-4.29 0,-385.66 312.64,-698.31 698.3,-698.31z"/>
  <path class="fil2" d="M913.42 34.82l0.31 0.01c384.08,0.17 695.63,310.43 697.94,694.02l-444.89 0c-43.92,-96.05 -140.84,-162.8 -253.36,-162.8l0 -531.23z"/>
  <path class="fil3" d="M853.49 1658.5l-0.31 -0.01c-384.09,-0.17 -695.63,-310.43 -697.94,-694.02l444.69 0c44.82,93.75 140.53,158.51 251.37,158.51l2.19 -0.02 0 535.54z"/>
  <path class="fil4" d="M963.36 330.38c282.2,28.98 501.46,268.12 501.46,556.19 0,308.39 -250.64,559.22 -559.06,559.24 -100.25,0.01 -197.73,-26.57 -283.71,-77.45l-275.86 88.14 89.59 -267.11c-58.42,-90.18 -89.32,-194.97 -89.31,-302.82 0.02,-308.36 250.68,-559.21 559.08,-559.21l57.81 0 0 3.02z"/>
  <path class="fil5" d="M1197.59 1093.21l-14.25 -5.07c-4.24,12.42 -16.93,26.47 -33.64,37.65 -16.56,11.25 -36.76,19.76 -53.74,23.35 -7.82,1.67 -15.23,3.03 -25.67,3.04 -11.58,0 -27.05,-1.77 -49.6,-7.69 -22.53,-5.89 -52.05,-15.95 -91.36,-32.27 -70.71,-29.22 -129.9,-80.45 -172.04,-125.77 -21.08,-22.65 -37.9,-43.77 -49.9,-59.79 -5.99,-8.02 -10.78,-14.75 -14.31,-19.8 -1.76,-2.52 -3.2,-4.63 -4.35,-6.29 -1.18,-1.71 -1.95,-2.82 -2.81,-3.98l-12.05 9.17 12.25 -8.89c-1.88,-2.57 -6.18,-8.35 -11.89,-17.04 -8.51,-12.97 -19.84,-32.12 -28.92,-54.17 -9.1,-22.04 -15.84,-46.91 -15.82,-71.11 0.04,-33.42 8.36,-57.33 18.2,-75 4.94,-8.83 10.29,-16.07 15.3,-22.01 5.03,-5.96 9.67,-10.58 13.45,-14.44l0.04 -0.03c3.87,-4.01 9.73,-7.48 16.89,-9.83 7.13,-2.37 15.45,-3.59 23.58,-3.58 5.74,0 10.91,0.26 15.95,0.54l0.1 0 0.09 0.02c3.59,0.14 6.21,0.33 7.74,0.62 1.16,0.22 1.69,0.43 2.05,0.6 0.48,0.29 1.06,0.54 2.61,2.58 1.49,2.01 3.61,5.77 6.04,11.66 6.03,14.56 16.43,39.84 25.78,62.4 4.67,11.28 9.06,21.88 12.53,30.15 1.74,4.13 3.23,7.68 4.42,10.45 1.2,2.81 2.01,4.7 2.67,6.09l0.03 0.07 0.02 0.05c1.93,3.89 3.12,7.77 3.06,10.16 -0.02,1.37 -0.21,2.3 -0.81,3.52l-0.11 0.22 -0.11 0.23c-2.02,4.25 -3.58,6.75 -5.59,9.48 -2.01,2.71 -4.66,5.76 -8.41,10.16l0.07 -0.1c-6.65,7.75 -14.01,14.42 -22.23,24.67l11.82 9.43 -11.48 -9.86c-2.27,2.68 -5.3,6.02 -8.08,10.66 -2.77,4.58 -5.25,10.86 -5.23,18.08 -0.02,6.7 2.1,13.55 5.85,19.95l0.03 0.06 0.01 0.01c8.92,15.04 38.96,64.27 84.27,104.72l0.07 0.06 -0.05 -0.04c28.96,25.7 55.32,42.82 76.59,54.36 10.63,5.77 20,10.15 27.71,13.51 7.69,3.34 13.83,5.71 17.55,7.26l-0.05 -0.02c6.4,2.7 13.26,4.13 20.21,4.13 11.24,0.05 23.23,-3.97 32.01,-13.27l0.03 -0.03 0.06 -0.06c6.31,-6.82 12.78,-15.18 19.57,-24.38 6.76,-9.18 13.77,-19.17 20.79,-28.95l0.04 -0.04c2.38,-3.35 4.42,-5.01 6.05,-5.9 1.63,-0.89 2.96,-1.22 4.94,-1.24 1.87,-0.01 4.36,0.42 7.4,1.55l0.16 0.06 0.13 0.05c0.93,0.31 3.41,1.31 6.5,2.67 11.01,4.81 30.87,14.3 49.36,23.29 18.53,9.02 35.85,17.61 42.24,20.8l0.03 0.01c7.67,3.81 13.84,6.58 17.64,8.67 1.91,1.04 3.18,1.9 3.74,2.36l0.41 0.36 1.62 -1.44 -1.89 1.06 0.27 0.38 1.62 -1.44 -1.89 1.06 0.03 0.04 0.04 0.07 6.93 -3.98 -7.44 2.93 0.51 1.05 6.93 -3.98 -7.44 2.93 2.6 -1.02 -2.69 0.79 0.09 0.23 2.6 -1.02 -2.69 0.79c0.11,0.16 0.68,3.51 0.64,7.98 0.02,11 -2.45,29.79 -9.68,50.27l0.01 -0.05 14.25 5.07 14.27 5.01c8.36,-23.88 11.36,-45.24 11.39,-60.3 -0.01,-4.12 -0.22,-7.78 -0.71,-11.16 -0.26,-1.71 -0.58,-3.35 -1.05,-5.04 -0.5,-1.7 -1.09,-3.44 -2.28,-5.55l0.06 0.11c-2.06,-3.65 -4.77,-6.46 -7.45,-8.64 -4.08,-3.27 -8.18,-5.41 -12.56,-7.63 -4.4,-2.19 -9.13,-4.36 -14.41,-6.99l0.03 0.02c-7.45,-3.73 -29.05,-14.44 -50.58,-24.85 -10.76,-5.2 -21.5,-10.32 -30.47,-14.49 -4.49,-2.08 -8.53,-3.91 -11.97,-5.41 -3.47,-1.52 -6.2,-2.66 -8.65,-3.52l-4.98 14.27 5.26 -14.17c-5.6,-2.08 -11.6,-3.45 -17.93,-3.45 -6.57,-0.03 -13.48,1.58 -19.65,5.05 -6.2,3.45 -11.55,8.54 -15.98,14.79l0.03 -0.04c-7.13,9.94 -14.1,19.85 -20.58,28.65 -6.45,8.78 -12.48,16.47 -17.37,21.72l0.09 -0.1c-2.26,2.38 -5.53,3.76 -10.03,3.8 -2.71,0.01 -5.71,-0.58 -8.47,-1.75l-0.1 -0.04 0.05 0.02c-4.39,-1.83 -10,-3.99 -17.12,-7.09 -21.24,-9.26 -55.56,-26.64 -96.29,-62.75l0.02 0.02c-41.25,-36.7 -70.24,-83.69 -78.32,-97.5l0.04 0.09c-1.69,-2.97 -1.74,-4.23 -1.76,-4.75 0.03,-0.55 0.05,-1 0.96,-2.58 0.88,-1.51 2.68,-3.71 5.04,-6.44l0.18 -0.2 0.17 -0.22c6.43,-8.1 13.31,-14.36 21.49,-23.74l0.06 -0.08 0.01 -0.02c3.55,-4.16 6.61,-7.61 9.69,-11.75 3.07,-4.12 5.94,-8.83 8.65,-14.6l-13.68 -6.45 13.46 6.89c2.95,-5.73 4.16,-11.83 4.14,-17.3 -0.07,-9.9 -3.41,-17.69 -6.08,-23.33l0.06 0.11c-0.21,-0.43 -1.08,-2.4 -2.2,-5.03 -8.04,-18.83 -32.03,-77.16 -42.6,-102.69 -2.68,-6.43 -5.31,-11.71 -8.42,-16.31 -2.32,-3.44 -4.96,-6.52 -8.05,-9.08 -4.6,-3.9 -10.18,-6.26 -15.09,-7.3 -4.96,-1.08 -9.28,-1.23 -13.51,-1.43l-0.66 15.11 0.85 -15.1c-5.16,-0.28 -11,-0.59 -17.64,-0.59 -11.05,0.01 -22.36,1.59 -33.06,5.1 -10.68,3.55 -20.89,9.06 -29.09,17.47l0.04 -0.04c-3.57,3.64 -9.01,9.03 -14.98,16.11 -8.96,10.64 -19.21,25.21 -27.12,44.46 -7.94,19.24 -13.5,43.13 -13.49,72.04 0.07,39.65 14.15,76.9 28.72,105.74 7.31,14.43 14.81,26.75 20.96,36.12 6.12,9.34 11.03,15.92 12.72,18.24l0.09 0.13 0.11 0.15c0.05,0.04 0.9,1.24 1.99,2.84 4.26,6.15 13.45,19.58 26.88,36.93 40.43,52.07 119.27,140.71 227.02,185.46 40.19,16.69 70.89,27.2 95.28,33.59 24.37,6.39 42.54,8.67 57.27,8.67 13.22,0.02 23.58,-1.88 32.01,-3.71 21.34,-4.59 44.32,-14.35 64.35,-27.86 19.92,-13.6 37.29,-30.81 45.19,-52.58l0.02 -0.05 -14.27 -5.01zm-291.83 -708l0 -15.12 -0.21 0 0 15.12 15.13 0 0 -15.17 -15.13 0c-284.81,0.04 -516.37,231.69 -516.4,516.53 0,112.92 36.47,217.75 98.38,302.79l12.23 -8.9 -14.34 -4.81 -71.98 214.56 221.13 -70.65 -4.6 -14.41 -8.35 12.62c81.63,54.03 179.18,85.36 284.14,85.35 284.83,-0.03 516.35,-231.68 516.38,-516.55 -0.03,-284.84 -231.55,-516.45 -516.38,-516.48l0 30.24c134.08,0.01 255.53,54.51 343.6,142.58 88.05,88.1 142.53,209.57 142.53,343.66 0,134.11 -54.48,255.59 -142.53,343.71 -88.07,88.09 -209.52,142.58 -343.6,142.59 -98.92,-0.01 -190.55,-29.45 -267.44,-80.32l-6.05 -4 -171.17 54.67 55.47 -165.35 -4.58 -6.31c-58.28,-80.09 -92.59,-178.61 -92.6,-284.99 0.01,-134.09 54.5,-255.57 142.55,-343.68 88.09,-88.09 209.55,-142.59 343.61,-142.6l0 -15.12 -15.12 0 0 15.16 15.33 0 0 -15.12z"/>
  <path class="fil6" d="M940.15 351.73c280.44,17.84 501.46,251.69 501.46,534.84 0,295.58 -240.24,536 -535.85,536.03 -99.56,0.01 -196.18,-27.31 -280.73,-79.56l-242.26 77.41 78.63 -234.43c-59.94,-88.49 -91.73,-192.39 -91.72,-299.45 0.01,-295.55 240.28,-536 535.87,-536l34.6 0 0 1.16zm-448.37 961.25l143.46 -45.83 13.84 9.17c76.45,50.68 164.98,77.09 256.68,77.09 124.23,0 242.06,-49.08 329.83,-136.89 87.79,-87.84 136.84,-205.7 136.84,-329.95 0,-124.24 -49.06,-242.07 -136.84,-329.89 -87.78,-87.81 -205.6,-136.88 -329.83,-136.88l-4.72 0c-122.63,1.17 -238.68,50.18 -325.33,136.86 -87.79,87.81 -136.85,205.67 -136.85,329.91 0,98.6 30.83,193.82 88.87,273.54l10.5 14.41 -46.45 138.46z"/>
  <path class="fil5" d="M905.76 385.21l0 -15.12 -0.21 0 0 15.12 15.13 0 0 -15.17 -15.13 0c-284.81,0.04 -516.38,231.69 -516.4,516.53 0,112.92 36.48,217.75 98.38,302.79l12.23 -8.9 -14.34 -4.81 -71.97 214.56 221.12 -70.65 -4.6 -14.41 -8.35 12.61c81.63,54.04 179.18,85.37 284.14,85.37 284.83,-0.04 516.36,-231.69 516.38,-516.56 -0.02,-284.84 -231.55,-516.46 -516.38,-516.48l0 30.24c134.07,0.01 255.53,54.5 343.6,142.59 88.05,88.09 142.54,209.56 142.54,343.65 0,134.11 -54.49,255.59 -142.54,343.71 -88.07,88.09 -209.53,142.58 -343.6,142.6 -98.92,-0.02 -190.55,-29.46 -267.44,-80.33l-6.05 -4.01 -171.17 54.68 55.47 -165.36 -4.58 -6.29c-58.28,-80.1 -92.59,-178.62 -92.6,-285 0.01,-134.09 54.5,-255.57 142.55,-343.68 88.09,-88.08 209.55,-142.59 343.61,-142.59l0 -15.13 -15.11 0 0 15.16 15.32 0 0 -15.12z"/>
  <path class="fil6" d="M791.8 842.21c19.64,33.36 46.66,68 75.4,93.53 28.21,25.06 58.86,45.87 93.47,60.95 5.6,2.44 11.26,4.65 16.9,6.99l0.58 0.25c1.21,0.45 2.59,0.75 3.85,0.74 0.43,0 1.98,-0.08 2.48,-0.58 5.86,-6.33 11.24,-13.58 16.35,-20.52 6.93,-9.41 13.66,-18.97 20.45,-28.48 5.18,-7.26 11.64,-13.52 19.45,-17.89 7.55,-4.22 16.21,-6.42 24.86,-6.4 6.08,0.02 12.05,1.04 17.12,2.63 2,0.46 4.26,1.39 6.17,2.11 2.44,0.93 4.84,1.97 7.23,3.02 4.09,1.78 8.14,3.63 12.19,5.51 10.25,4.75 20.45,9.64 30.62,14.56 16.94,8.18 33.83,16.49 50.67,24.89 4.79,2.38 9.66,4.6 14.44,7 5.15,2.59 9.91,5.2 14.44,8.85 4.01,3.22 7.34,6.96 9.76,11.21l0.29 0.49c1.42,2.51 2.41,5.01 3.19,7.77 0.6,2.11 1.02,4.24 1.33,6.41 0.61,4.2 0.84,8.45 0.83,12.69 -0.03,13.82 -2.21,28.14 -5.42,41.55 -3.33,13.92 -7.57,27.7 -15.2,39.93 -10.14,16.28 -24.87,29.53 -40.64,40.22 -20.23,13.72 -44.17,24.3 -68.07,29.45 -11.5,2.48 -22.44,3.97 -34.25,3.96 -20.11,-0.01 -40.57,-3.94 -59.96,-9.03 -32.78,-8.59 -65.41,-21.08 -96.66,-34.06 -92.12,-38.25 -170.77,-110.66 -231.34,-188.75 -9.49,-12.24 -18.44,-24.68 -27.22,-37.42 -0.69,-0.99 -1.39,-1.97 -2.09,-2.94 -4.44,-6.18 -8.8,-12.25 -12.97,-18.62 -7.85,-11.97 -15.09,-24.37 -21.55,-37.15 -17.28,-34.18 -29.82,-71.88 -29.87,-110.53 -0.03,-26.06 4.34,-51.93 14.29,-76.08 7.1,-17.25 16.81,-33.02 28.82,-47.27 4.93,-5.85 10.13,-11.17 15.46,-16.63 9.26,-9.5 20.83,-16 33.36,-20.14 11.69,-3.87 24.08,-5.63 36.37,-5.64 3.88,0 7.76,0.11 11.63,0.27 4.31,0.18 8.46,0.35 12.73,0.69 2.98,0.24 5.92,0.66 8.85,1.29 7.12,1.52 14.11,4.86 19.69,9.55 3.88,3.25 7.19,7.09 10.01,11.28 3.84,5.68 6.81,11.86 9.43,18.17 12.94,31.23 25.75,62.52 38.81,93.7 2.59,6.16 5.38,12.23 7.94,18.4 3.05,7.36 4.84,14.85 4.89,22.85 0.04,6.29 -1.23,12.64 -3.59,18.46 -0.8,1.97 -1.65,3.68 -2.59,5.56 -2.43,4.86 -5.25,9.47 -8.5,13.84 -3.18,4.27 -6.66,8.25 -10.21,12.41l-0.07 0.08c-6.89,7.88 -14.67,15.2 -21.25,23.48l-0.53 0.63c-0.65,0.75 -1.54,1.74 -2.37,2.76zm-36.15 -37c0,0 0.01,-0.01 0.01,-0.01 0,0 0,0 0,0 0.75,-0.87 1.48,-1.74 2.22,-2.61 6.13,-7.21 12.94,-13.72 19.14,-20.93l-0.02 0.02c2.62,-3.08 5.47,-6.23 7.87,-9.48 1.78,-2.41 3.11,-4.75 4.49,-7.62 -0.28,-1.5 -1.3,-3.78 -1.88,-4.94l-0.17 -0.35c-0.56,-1.19 -1.09,-2.39 -1.6,-3.6 -8.19,-19.34 -16.25,-38.73 -24.26,-58.15 -6.57,-15.94 -13.14,-31.87 -19.73,-47.8 -0.99,-2.38 -2.46,-5.86 -4.3,-8.67 -1.57,-0.16 -3.41,-0.19 -4.89,-0.25l-0.19 -0.01c-5.14,-0.28 -10.26,-0.53 -15.41,-0.53 -6.7,0 -13.86,0.94 -20.24,3.04 -4.39,1.45 -9.37,3.84 -12.64,7.19 -4.45,4.56 -8.83,9.01 -12.95,13.88 -5.35,6.34 -10.09,13.08 -14.14,20.32 -12.07,21.65 -16.82,45.18 -16.85,69.84 -0.03,22.74 6.4,46.16 15.02,67.06 7.51,18.22 17.17,35.92 27.98,52.39 3.66,5.58 7.46,10.97 11.56,16.57l2.81 3.97c1.43,2.08 2.86,4.16 4.31,6.24 4.59,6.58 9.29,13.09 14.1,19.51 15.33,20.47 31.76,40.19 49.18,58.92 46.92,50.45 104.29,96.68 168.32,123.2 29.01,12.01 59.59,23.84 90,31.81 14.95,3.91 31.38,7.34 46.91,7.33 8.25,0 15.45,-1.1 23.46,-2.8 17.05,-3.61 35.52,-11.98 50,-21.76 9,-6.08 18.41,-14.09 24.65,-23.07 4.51,-6.49 6.53,-13.53 8.6,-21.06 2.97,-10.85 5.38,-23.64 5.38,-34.94 0,-0.22 0,-0.44 -0.01,-0.66 -5.11,-2.69 -10.61,-5.08 -15.77,-7.66 -14.01,-6.99 -28.06,-13.91 -42.15,-20.76 -16.14,-7.85 -32.51,-15.92 -48.96,-23.1 -1.79,-0.78 -3.78,-1.7 -5.62,-2.34l-0.73 -0.27c-0.96,-0.35 -2.52,-0.85 -3.44,-0.9 -0.77,0.42 -2.06,2.11 -2.54,2.79 -6.95,9.71 -13.8,19.48 -20.88,29.09 -6.38,8.66 -13.02,17.37 -21.02,25.96l0.37 -0.36c-10.32,10.93 -24.66,16.49 -39.6,16.45 -8.31,-0.02 -16.56,-1.71 -24.22,-4.93 -5.9,-2.47 -11.83,-4.77 -17.7,-7.32 -9.71,-4.23 -19.23,-8.86 -28.54,-13.92 -28.33,-15.38 -54.54,-34.34 -78.6,-55.77 -33.81,-30.11 -63.37,-68.34 -86.39,-107.33 -4.54,-7.68 -7.33,-16.39 -7.33,-25.35 0,-8.32 2.47,-16.46 6.75,-23.57 1.92,-3.19 4.11,-6.12 6.48,-8.99 0.72,-0.86 1.43,-1.72 2.38,-2.87 0.26,-0.3 0.52,-0.6 0.78,-0.9z"/>
  <path class="fil5" d="M1177.13 1099.98c-6.23,8.98 -15.88,18.08 -27.43,25.81 -16.57,11.26 -36.76,19.76 -53.74,23.35 -7.82,1.66 -15.23,3.02 -25.66,3.03 -11.59,0 -27.05,-1.76 -49.6,-7.68 -22.54,-5.89 -52.07,-15.94 -91.37,-32.27 -70.71,-29.22 -129.9,-80.46 -172.04,-125.78 -21.07,-22.64 -37.9,-43.76 -49.9,-59.78 -6,-8.02 -10.78,-14.75 -14.31,-19.8 -1.76,-2.52 -3.2,-4.63 -4.35,-6.3 -1.18,-1.7 -1.95,-2.8 -2.81,-3.96l0.2 0.27c-1.88,-2.57 -6.18,-8.35 -11.89,-17.04 -8.51,-12.97 -19.84,-32.13 -28.92,-54.17 -9.1,-22.05 -15.84,-46.92 -15.82,-71.12 0.05,-33.42 8.36,-57.32 18.2,-75 4.94,-8.81 10.28,-16.06 15.3,-22 5.03,-5.96 9.66,-10.58 13.45,-14.44l0.04 -0.03c3.87,-4.01 9.73,-7.48 16.88,-9.83 7.14,-2.37 15.46,-3.59 23.58,-3.58 5.76,0 10.92,0.26 15.96,0.54l0.09 0 0.1 0.01c3.59,0.15 6.21,0.33 7.74,0.63 1.16,0.22 1.69,0.43 2.05,0.61 0.48,0.28 1.05,0.52 2.61,2.56 1.49,2.02 3.6,5.78 6.04,11.67 4.75,11.47 12.22,29.61 19.74,47.81 7.98,19.39 16.06,38.74 24.22,58.06 0.58,1.32 1.03,2.37 1.43,3.22l0.04 0.07 0.02 0.05c1.94,3.9 3.12,7.78 3.06,10.16 -0.02,1.37 -0.21,2.31 -0.82,3.52l-0.1 0.22 -0.11 0.22c-2.02,4.26 -3.59,6.76 -5.59,9.49 -2.01,2.72 -4.66,5.76 -8.41,10.15l0.07 -0.08c-5.79,6.75 -12.14,12.7 -19.11,20.9 -7.62,8.94 1.12,-1.49 -5.3,6.29 -1.76,2.1 -3.72,4.62 -5.56,7.69 -2.77,4.59 -5.25,10.86 -5.23,18.09 -0.02,6.7 2.1,13.55 5.85,19.95l0.04 0.06 0.01 0.01c8.91,15.05 38.95,64.27 84.26,104.73l0.07 0.05 -0.05 -0.04c28.95,25.7 55.32,42.82 76.59,54.36 10.63,5.78 20,10.15 27.71,13.51 7.69,3.34 13.83,5.72 17.56,7.27l-0.06 -0.03c6.4,2.7 13.26,4.13 20.21,4.13 11.24,0.05 23.23,-3.98 32,-13.27l0.04 -0.03 0.06 -0.06c6.3,-6.82 12.78,-15.18 19.57,-24.37 6.76,-9.2 13.77,-19.17 20.79,-28.97l0.04 -0.03c2.37,-3.35 4.42,-5.01 6.05,-5.9 1.63,-0.89 2.96,-1.22 4.94,-1.24 1.88,-0.01 4.36,0.42 7.4,1.55l0.16 0.05 0.13 0.06c0.93,0.31 3.4,1.32 6.5,2.68 11.01,4.8 30.87,14.29 49.36,23.28 18.53,9.02 35.85,17.6 42.24,20.81l0.03 0c7.67,3.82 13.84,6.57 17.64,8.67 1.15,0.62 2.05,1.22 2.73,1.63l0.61 0.38 0.29 0.4c0.17,0.21 0.05,0.63 0.07,0.96 0.13,1.4 0.31,3.46 0.29,5.78 0.02,8.71 -1.53,22.32 -5.76,37.74 -2.43,8.91 -4.77,16.62 -10.12,24.32zm40.99 -22.96c3.66,-15.2 5.1,-28.67 5.13,-39.1 0,-4.12 -0.23,-7.78 -0.72,-11.16 -0.24,-1.7 -0.57,-3.35 -1.04,-5.03 -0.49,-1.71 -1.09,-3.45 -2.29,-5.56l0.07 0.11c-2.06,-3.65 -4.77,-6.47 -7.46,-8.64 -4.06,-3.27 -8.17,-5.41 -12.55,-7.63 -4.4,-2.19 -9.13,-4.35 -14.41,-6.99l0.03 0.02c-7.46,-3.72 -29.04,-14.44 -50.58,-24.85 -10.76,-5.2 -21.5,-10.32 -30.47,-14.49 -4.49,-2.07 -8.53,-3.91 -11.97,-5.41 -2.6,-1.14 -4.81,-2.07 -6.75,-2.82 -4.49,-1.69 -4.67,-1.65 -4.79,-1.69 -4.68,-1.44 -9.6,-2.36 -14.76,-2.36 -6.57,-0.03 -13.49,1.58 -19.65,5.05 -6.21,3.45 -11.55,8.54 -15.99,14.79l0.04 -0.04c-7.13,9.94 -14.09,19.85 -20.58,28.65 -6.45,8.78 -12.49,16.47 -17.38,21.72l0.1 -0.1c-2.25,2.38 -5.53,3.76 -10.03,3.8 -2.72,0.01 -5.71,-0.59 -8.48,-1.75l-0.09 -0.05 0.05 0.03c-4.39,-1.83 -10,-3.99 -17.12,-7.09 -21.24,-9.26 -55.57,-26.64 -96.28,-62.75l0.01 0.02c-41.25,-36.7 -70.24,-83.7 -78.33,-97.5l0.05 0.08c-1.69,-2.96 -1.74,-4.22 -1.76,-4.74 0.04,-0.54 0.05,-1 0.96,-2.57 0.88,-1.51 2.69,-3.72 5.04,-6.45l0.18 -0.2 0.18 -0.22c6.42,-8.09 13.3,-14.36 21.48,-23.75l0.06 -0.07 0.01 -0.01c3.55,-4.17 6.61,-7.62 9.68,-11.76 2.65,-3.55 5.15,-7.54 7.52,-12.25 1.02,-2.07 1.35,-2.54 2.25,-4.8 1.98,-4.84 2.83,-9.86 2.81,-14.41 -0.05,-7.49 -1.99,-13.79 -4.08,-18.84 -2.51,-6.04 -5.28,-12.09 -7.92,-18.37 -10.13,-24.19 -29.6,-71.45 -38.83,-93.73 -2.67,-6.43 -5.3,-11.7 -8.42,-16.3 -2.31,-3.45 -4.96,-6.53 -8.04,-9.09 -4.61,-3.9 -10.18,-6.26 -15.09,-7.3 -2.65,-0.58 -5.11,-0.89 -7.47,-1.08 -3.71,-0.3 0.96,-0.12 -12.32,-0.67 -3.45,-0.15 -7.17,-0.26 -11.18,-0.26 -11.04,0.01 -22.35,1.58 -33.05,5.1 -10.67,3.54 -20.9,9.05 -29.09,17.47l0.04 -0.04c-3.57,3.64 -9.01,9.03 -14.98,16.11 -8.96,10.63 -19.21,25.22 -27.12,44.46 -7.93,19.23 -13.5,43.13 -13.49,72.03 0.07,39.66 14.15,76.9 28.73,105.75 7.3,14.43 14.81,26.75 20.95,36.12 6.12,9.34 11.04,15.93 12.71,18.24 0.73,1.03 1.49,2.06 2.21,3.11 4.25,6.16 13.45,19.59 26.87,36.94 40.43,52.07 119.28,140.71 227.02,185.45 40.19,16.69 70.89,27.21 95.28,33.6 24.37,6.39 42.54,8.68 57.28,8.68 13.21,0.02 23.57,-1.89 32,-3.72 21.34,-4.59 44.32,-14.35 64.35,-27.86 14.92,-10.18 28.46,-22.41 37.59,-37.05 6.96,-11.18 10.85,-24.04 13.88,-36.78z"/>
  <g style="clip-path:url(#id0)">
   <image x="747.57" y="762.53" width="448.86" height="327.87" xlink:href="flotante2_Images\flotante2_ImgID1.png"/>
  </g>
  <g style="clip-path:url(#id1)">
   <image x="1181.1" y="1084.15" width="8.27" height="9.28" xlink:href="flotante2_Images\flotante2_ImgID2.png"/>
  </g>
  <g id="_2249943809568">
   <path class="fil7" d="M1512.3 684.76l68.78 -29.16c0.34,-0.14 0.63,-0.25 0.97,-0.35l33.19 -10.4c5.59,-1.75 11.57,1.37 13.31,6.96l9.15 29.21c1.75,5.58 -1.37,11.56 -6.95,13.3l-33.19 10.4c-0.34,0.11 -0.64,0.19 -0.99,0.26l-73.04 15.4c-0.53,3.98 -3.29,7.5 -7.35,8.77l-27.05 8.48c-5.59,1.75 -11.57,-1.37 -13.31,-6.96l-8.47 -27.04c-1.75,-5.58 1.37,-11.55 6.95,-13.3l27.04 -8.48c4.02,-1.26 8.26,0.01 10.96,2.91zm-60.23 -127.15c0.94,-0.12 1.92,-0.1 2.93,0.04 3.08,0.43 5.57,1.99 7.31,4.57l7.7 11.41c0.06,-0.53 0.13,-1.05 0.21,-1.56 2.14,-13.66 9.86,-23.92 22.35,-29.84 11.41,-5.4 23.28,-5.29 34.8,-0.22 13.47,5.93 22.42,19.04 28.53,31.92 5.5,11.62 10.4,25.8 8.42,38.82 -1.75,11.57 -7.71,21.19 -16.45,28.87 -2.33,2.04 -5.11,2.92 -8.19,2.57 -3.08,-0.34 -5.6,-1.81 -7.42,-4.32l-6.02 -8.31c-0.06,4.01 -0.48,7.9 -1.41,11.47 -2.94,11.25 -10.67,19.14 -21,24.03 -12.15,5.77 -24.86,5.27 -37.07,-0.17 -14.39,-6.39 -23.96,-19.76 -30.52,-33.59 -6.06,-12.8 -10.09,-27.21 -7.76,-41.45 2.09,-12.79 8.27,-23.53 18.23,-31.84 0.47,-0.4 0.96,-0.74 1.47,-1.05 -9.23,2.88 -18.98,3.67 -29.18,2.07 -18.1,-2.85 -32.42,-12.41 -42.99,-27.25 -6.69,-9.39 -10.92,-19.91 -12.7,-31.31 -1.86,-11.87 -0.18,-23.44 5.11,-34.24 5.6,-11.41 14.64,-20.55 24.91,-27.86 9.3,-6.63 19.8,-10.56 31.12,-12.09 11.79,-1.6 23.28,0.13 33.99,5.33 10.69,5.19 19.38,12.9 26.25,22.55 10.59,14.88 15.26,31.6 12.05,49.68 -3.2,17.99 -13.06,32.12 -27.88,42.67 -5.37,3.82 -10.97,6.88 -16.79,9.1zm23.97 61.71c-0.99,-4.34 -2.17,-9.63 -3.24,-15.22 -0.4,0.69 -0.7,1.43 -0.88,2.23 -0.6,2.82 0.84,6.62 2.02,9.1 0.51,1.08 1.24,2.5 2.1,3.89zm-170.56 -211.85l59.07 -62.12c4.03,-4.24 10.78,-4.41 15.02,-0.38l19.04 18.11c1.88,1.8 2.96,4.13 3.23,6.53 6.15,1.34 11.53,4.37 16.1,8.7 6.24,5.94 10.42,13.29 12.78,21.56 1.41,4.94 -0.83,10.06 -5.41,12.38l-23.43 11.88c-2.99,1.52 -6.2,1.58 -9.25,0.17 -3.05,-1.4 -5.09,-3.88 -5.87,-7.15 -0.57,-2.36 -1.64,-5.63 -3.47,-7.36 -0.89,-0.85 -1.96,-1.62 -3.22,-1.73 -1.52,-0.14 -5.24,1.89 -6.47,2.63 -7.23,4.35 -18.42,16.47 -24.28,22.64l-22.8 23.98c-4.03,4.24 -10.78,4.41 -15.02,0.38l-20.54 -19.53c-2.51,-2.38 -3.59,-5.71 -3.23,-8.91 -1.13,0.1 -2.31,0.03 -3.48,-0.25 -8.94,-2.08 -17.08,-6.24 -24.43,-11.67 -4.95,-3.65 -9.21,-8.07 -12.37,-13.37 -2.96,-4.97 -4.92,-10.59 -4.77,-16.44 0.15,-5.56 2.04,-10.91 4.53,-15.84 3.07,-6.07 8.11,-12.75 12.14,-18.22l21.59 -29.26 -1.94 -1.43c-4.71,-3.47 -5.72,-10.15 -2.25,-14.85l13.38 -18.14c3.47,-4.71 10.14,-5.72 14.85,-2.25l1.94 1.43 6.35 -8.6c2.3,-3.11 5.79,-4.66 9.63,-4.26l32.75 3.35c3.9,0.39 7.05,2.68 8.63,6.26 1.59,3.59 1.16,7.45 -1.17,10.61l-16.29 22.07 7.1 5.23c4.71,3.47 5.72,10.15 2.25,14.85l-13.38 18.14c-3.48,4.71 -10.15,5.72 -14.86,2.25l-7.09 -5.24 -19.5 26.44c-1.57,2.12 -3.77,4.92 -5.56,7.54 1.77,0.72 3.86,1.36 5.07,1.72 3.23,0.95 5.62,3.13 6.86,6.26 1.25,3.14 1,6.36 -0.7,9.27l-1.53 2.62zm-1025.47 390c-8.14,0.53 -16.38,-0.37 -24.5,-2.26 -17.47,-4.05 -33.63,-12.25 -43.95,-27.38 -9.55,-14 -12.16,-29.66 -8.33,-46.13 4.05,-17.43 13.35,-31.65 29.29,-40.15 17.64,-9.41 39.12,-7.54 57.83,-2.81 3.39,0.86 5.99,3.27 7.23,6.28 0.72,-0.44 1.51,-0.79 2.36,-1.06 3.1,-0.97 6.15,-0.58 8.88,1.16 10.48,6.64 18.79,15.57 23.39,27.18 4.7,11.85 4.6,24.55 1.74,36.83 -4.49,19.33 -14.68,35.64 -33.4,43.56 -3.49,1.48 -7.05,2.59 -10.64,3.38l16.99 -0.54c4.74,-0.16 8.86,2.69 10.39,7.18 2.96,8.67 3.76,17.77 3.07,26.88 -0.47,6.13 -1.96,12.09 -4.77,17.58 -2.65,5.18 -6.33,9.78 -11.39,12.77 -4.8,2.83 -10.34,4.07 -15.84,4.58 -6.77,0.62 -15.11,-0.11 -21.88,-0.62l-36.26 -2.76 -0.18 2.41c-0.44,5.83 -5.56,10.23 -11.4,9.79l-22.48 -1.71c-5.83,-0.44 -10.22,-5.56 -9.78,-11.4l0.18 -2.4 -10.66 -0.81c-3.85,-0.29 -7.01,-2.43 -8.72,-5.89l-14.55 -29.52c-1.73,-3.52 -1.46,-7.4 0.73,-10.65 2.19,-3.24 5.7,-4.94 9.6,-4.64l27.36 2.08 0.67 -8.8c0.44,-5.84 5.56,-10.23 11.4,-9.79l22.47 1.71c5.83,0.44 10.22,5.56 9.78,11.39l-0.67 8.8 32.76 2.49c2.63,0.2 6.18,0.58 9.35,0.71 -0.33,-1.88 -0.91,-3.98 -1.24,-5.18 -0.92,-3.25 -0.34,-6.43 1.65,-9.16 0.98,-1.33 2.17,-2.38 3.52,-3.1zm5.03 -49.85c0.71,-0.25 1.41,-0.55 2.07,-0.93 3.01,-1.73 4.68,-4.05 5.46,-7.44 0.37,-1.56 0.5,-3.22 -0.21,-4.71 -0.61,-1.25 -2.07,-2.48 -3.48,-3.44l-3.84 16.52zm18.25 426.8l-6.56 -29.56c-1.24,-5.59 2.19,-11.17 7.74,-12.59 16.3,-4.17 33.59,-4.8 49.34,1.88 15.4,6.54 26.66,18.52 34.82,32.89 10.76,18.95 13.8,39.55 7.34,60.52 -6.92,22.48 -23.44,38.48 -43.5,49.87 -20.46,11.61 -43.66,18.44 -67.1,12.85 -22.06,-5.25 -38.27,-19.08 -49.39,-38.66 -9.56,-16.85 -13.53,-35.13 -8.87,-54.12 3,-12.23 10.3,-22.74 19.03,-31.61 2.11,-2.14 4.71,-3.21 7.72,-3.17 3,0.04 5.58,1.18 7.62,3.38l20.72 22.26c2.01,2.16 2.96,4.72 2.84,7.66 -0.11,2.94 -1.27,5.42 -3.43,7.41 -3.7,3.39 -6.28,7.35 -7.08,12.35 -0.81,5.02 0.48,9.61 2.97,13.99 3.75,6.61 8.86,10.75 16.35,12.26 9.83,1.98 22.74,-4.1 31.01,-8.79 8.36,-4.76 21.52,-13.37 25.02,-22.92 2.58,-7.05 1.82,-13.37 -1.88,-19.88 -2.56,-4.51 -6.01,-7.63 -10.94,-9.31 -6.28,-2.15 -14.19,-0.68 -20.36,1.17 -2.93,0.87 -5.78,0.53 -8.42,-1.02 -2.64,-1.55 -4.33,-3.87 -4.99,-6.86zm-84.53 -83.62c-5.12,-5.51 -8.99,-12.16 -11.33,-20 -2.21,-7.36 -3.05,-14.99 -1.96,-22.62 0.98,-6.93 3.31,-13.53 7.63,-19.1 3.74,-4.81 8.36,-8.71 13.7,-11.64 6.6,-3.61 14.86,-6.24 22.05,-8.39l60.24 -18c5.6,-1.67 11.54,1.53 13.21,7.14l8.12 27.15c1.68,5.6 -1.52,11.54 -7.13,13.22l-54.23 16.21c-3.77,1.12 -13.66,3.96 -16.8,6.06 -0.72,0.53 -1.08,1.15 -1.33,2.01 -0.43,1.46 -0.05,3.31 0.37,4.72 0.74,2.5 1.93,4.63 3.87,6.37 1.67,1.51 3.71,2.05 5.93,2.21 4.83,0.34 11.9,-1.54 16.49,-2.92l51.46 -15.38c5.6,-1.67 11.54,1.54 13.22,7.14l8.11 27.15c1.67,5.6 -1.54,11.54 -7.14,13.22l-141.89 42.4c-5.6,1.67 -11.54,-1.54 -13.22,-7.14l-8.11 -27.15c-1.67,-5.6 1.54,-11.54 7.14,-13.22l31.6 -9.44zm91.9 -174.82c1.28,1.88 2.46,3.83 3.52,5.87 3.48,6.7 5.5,13.89 6.05,21.42 0.9,12.31 -1.5,24.36 -9.42,34.1 -7.49,9.21 -17.61,14.18 -29.42,15.04 -7.67,0.56 -15.24,-0.76 -22.1,-4.28 -6.86,-3.52 -12.26,-8.8 -16.11,-15.48 -0.21,-0.36 -0.41,-0.73 -0.61,-1.09l-1.25 12.11c-0.31,3.09 -1.76,5.62 -4.25,7.46 -2.49,1.84 -5.34,2.48 -8.38,1.88 -11.78,-2.35 -22.63,-7.47 -30.41,-16.85 -8.36,-10.09 -11.31,-24.12 -12.25,-36.87 -0.78,-10.52 -0.84,-23.31 3.11,-33.25 3.01,-7.58 7.59,-14.41 14.54,-18.89 7.98,-5.14 20.74,-6.61 30.16,-7.31l32.9 -2c5.8,-0.43 13.05,-0.97 18.66,-2.53 3.99,-1.1 7.87,-2.97 11.44,-5.05 3.26,-1.89 6.97,-1.97 10.3,-0.22 3.34,1.76 5.37,4.86 5.64,8.62l2.06 28.06c0.27,3.73 -1.3,7.13 -4.18,9.26zm-77.5 29.44c-1.16,-4.35 -2.53,-9.38 -4.12,-14.02 -0.27,2.24 -0.12,5.48 -0.02,6.83 0.11,1.49 0.48,4.37 1.49,5.59 0.49,0.59 1.54,1.14 2.65,1.6zm135.48 -316.7c0.25,2.27 0.35,4.55 0.32,6.84 -0.12,7.54 -1.78,14.83 -4.87,21.71 -5.06,11.26 -12.89,20.71 -24.51,25.51 -10.96,4.53 -22.25,4.08 -33.03,-0.76 -7.06,-3.17 -13.04,-7.9 -17.42,-14.3 -4.35,-6.36 -6.57,-13.55 -6.79,-21.26 -0.01,-0.42 -0.01,-0.84 -0.02,-1.26l-6.85 10.07c-1.75,2.56 -4.22,4.1 -7.29,4.54 -3.07,0.43 -5.88,-0.37 -8.27,-2.34 -9.24,-7.67 -16.35,-17.34 -18.73,-29.29 -2.55,-12.85 1.52,-26.6 6.76,-38.26 4.33,-9.63 10.36,-20.9 18.56,-27.76 6.24,-5.23 13.55,-9.07 21.77,-9.7 9.48,-0.72 21.39,4.04 30.02,7.92l29.89 13.89c5.29,2.39 11.93,5.36 17.6,6.66 4.04,0.93 8.34,1.14 12.47,1.01 3.77,-0.12 7.07,1.57 9.17,4.7 2.09,3.14 2.4,6.83 0.86,10.27l-11.54 25.66c-1.54,3.4 -4.54,5.64 -8.1,6.15zm-82.16 -10.99c1.05,-4.38 2.23,-9.44 3.05,-14.27 -1.3,1.84 -2.71,4.75 -3.26,5.99 -0.62,1.36 -1.66,4.07 -1.36,5.63 0.15,0.75 0.81,1.73 1.57,2.65zm149.5 -206.37l-14.56 24.33c-1.51,2.53 -3.71,4.16 -6.57,4.86 -2.85,0.71 -5.56,0.29 -8.07,-1.25 -1.81,-1.1 -4.3,-2.3 -6.48,-1.95 -2.15,0.34 -3.94,1.93 -5.32,3.51 -2.35,2.71 -3.59,5.5 -3.06,9.08 0.73,4.99 7.28,11.29 10.84,14.38 4,3.47 12.38,10.1 18,10.29 3.76,0.12 6.4,-1.32 8.85,-4.14 1.47,-1.69 2.59,-3.6 2.56,-5.89 -0.04,-2.86 -3.23,-7.32 -4.9,-9.43 -3.6,-4.54 -2.89,-11.14 1.58,-14.81l21.9 -17.98c2.34,-1.92 5.06,-2.7 8.06,-2.33 3.01,0.38 5.45,1.82 7.24,4.25 8.28,11.28 13.67,24.17 13.08,38.36 -0.6,14.47 -7.5,27.16 -16.82,37.9 -11.4,13.13 -25.84,21.51 -43.38,22.21 -18.15,0.73 -34.24,-7.38 -47.67,-19.03 -13.54,-11.75 -23.89,-26.51 -25.7,-44.74 -1.75,-17.62 4.77,-33.17 16.24,-46.38 8.63,-9.94 19.37,-18.36 32.43,-21.36 12.73,-2.93 25.36,-0.35 37.06,5.02 2.85,1.3 4.8,3.51 5.72,6.5 0.93,2.99 0.58,5.92 -1.03,8.6zm16.48 -2.82c-7.1,-8.95 -11.58,-19.22 -13.69,-30.44 -2.2,-11.72 -1.09,-23.24 3.56,-34.23 4.63,-10.94 11.89,-20.02 21.17,-27.38 14.27,-11.31 30.83,-16.87 49,-14.6 18.12,2.26 32.75,11.38 44.05,25.63 11.36,14.32 16.99,30.89 15.07,49.15 -1.91,18.23 -10.71,33.02 -24.98,44.34 -9.04,7.17 -19.33,11.93 -30.61,14.3 -11.74,2.47 -23.42,1.38 -34.46,-3.34 -11.69,-5 -21.28,-13.55 -29.11,-23.43zm133.68 -161.83c5.33,-7.36 12.49,-13.21 21.57,-17.3 6.73,-3.03 13.9,-4.82 21.3,-4.93 6.75,-0.1 13.54,1.04 19.53,4.28 5.25,2.84 9.71,6.71 13.35,11.44 4.25,5.54 7.68,12.51 10.54,18.86l27.36 60.75c2.41,5.33 0.01,11.64 -5.32,14.04l-25.84 11.64c-5.33,2.41 -11.64,0.01 -14.04,-5.32l-22.46 -49.89c-1.63,-3.61 -6.19,-13.88 -8.84,-16.68 -0.85,-0.88 -1.73,-1.5 -2.95,-1.72 -1.34,-0.24 -2.74,0.19 -3.96,0.73 -2.48,1.12 -4.39,2.7 -5.81,5.02 -1.24,2.03 -1.73,4.07 -1.49,6.43 0.56,5.36 5.01,15.19 7.22,20.11l19.93 44.26c2.4,5.33 0.01,11.64 -5.32,14.04l-25.84 11.64c-5.33,2.41 -11.64,0.01 -14.04,-5.32l-44.07 -97.88c-2.41,-5.33 -0.01,-11.64 5.32,-14.04l23.96 -10.79c3.31,-1.5 7.01,-1.14 9.9,0.63zm206.78 -66.31c7.26,-5.45 15.84,-8.93 25.72,-10.14 7.33,-0.9 14.7,-0.47 21.8,1.61 6.51,1.91 12.63,4.99 17.41,9.88 4.17,4.27 7.28,9.29 9.35,14.89 2.42,6.54 3.63,14.21 4.48,21.11l8.13 66.14c0.71,5.81 -3.44,11.13 -9.25,11.84l-28.13 3.45c-5.8,0.71 -11.12,-3.44 -11.83,-9.25l-6.67 -54.3c-0.48,-3.93 -1.79,-15.08 -3.5,-18.54 -0.55,-1.1 -1.21,-1.95 -2.3,-2.52 -1.21,-0.63 -2.69,-0.63 -4.01,-0.47 -2.7,0.33 -4.99,1.28 -7.04,3.07 -1.79,1.58 -2.85,3.36 -3.32,5.7 -1.05,5.28 0.28,16 0.94,21.34l5.92 48.18c0.71,5.81 -3.44,11.13 -9.25,11.84l-28.12 3.45c-5.8,0.71 -11.12,-3.44 -11.83,-9.24l-13.09 -106.53c-0.71,-5.81 3.44,-11.13 9.24,-11.84l26.07 -3.21c3.61,-0.45 7.04,0.99 9.28,3.54zm87.91 49.8c0,-11.42 2.87,-22.25 8.19,-32.36 5.56,-10.56 13.58,-18.87 24.06,-24.6 10.41,-5.69 21.75,-8.3 33.6,-8.3 18.28,0 34.58,5.89 47.46,19 12.8,13.04 18.59,29.27 18.59,47.46 0,18.32 -5.85,34.72 -18.72,47.87 -12.82,13.1 -28.91,19.22 -47.13,19.22 -11.54,0 -22.55,-2.65 -32.88,-7.81 -10.77,-5.38 -19.19,-13.43 -24.92,-24.02 -6.05,-11.19 -8.25,-23.85 -8.25,-36.46zm156.22 24.3c-0.37,-0.39 -0.72,-0.78 -1.05,-1.17 -8.9,-10.58 -11.58,-23.14 -7.86,-36.44 3.41,-12.16 11.27,-21.05 22.67,-26.42 13.32,-6.27 29.07,-4.41 42.8,-0.58 12.38,3.46 26.29,9.07 34.83,19.11 7.58,8.91 10.93,19.72 10.99,31.35 0.02,3.09 -1.15,5.77 -3.43,7.87 -2.28,2.09 -5.04,3.03 -8.13,2.76l-10.23 -0.91c2.99,2.68 5.65,5.55 7.73,8.59 6.56,9.57 7.45,20.63 4.38,31.62 -3.63,12.95 -12.35,22.21 -24.46,27.86 -14.27,6.67 -30.63,5.13 -45.38,1 -13.64,-3.82 -27.16,-10.25 -36.37,-21.33 -8.27,-9.96 -12.34,-21.71 -12.08,-34.65 0.06,-3.12 1.31,-5.77 3.66,-7.81 2.35,-2.04 5.16,-2.9 8.25,-2.52l13.68 1.67zm38.4 25.43c-3.92,-2.1 -8.68,-4.68 -13.58,-7.53 0.25,0.75 0.61,1.46 1.11,2.12 1.72,2.29 5.54,3.71 8.17,4.44 1.15,0.32 2.7,0.71 4.3,0.97zm66.85 -8.03c5,-10.27 12.32,-18.74 21.52,-25.5 9.63,-7.07 20.48,-11.02 32.41,-11.59 11.85,-0.56 23.19,2.07 33.84,7.25 16.44,8.01 28.51,20.43 34.35,37.86 5.81,17.33 3.9,34.45 -4.06,50.81 -8.02,16.47 -20.47,28.66 -37.79,34.84 -17.26,6.16 -34.41,4.62 -50.79,-3.35 -10.37,-5.05 -19.12,-12.26 -26.14,-21.42 -7.33,-9.56 -11.36,-20.48 -11.88,-32.51 -0.54,-12.67 3.04,-25.09 8.54,-36.39zm-874.2 654.95c0.41,1.39 0.81,2.76 1.21,4.11 0.78,2.67 2.67,9.27 4.08,11.3 0.37,0.45 0.74,0.99 1.38,0.94 1.18,-0.09 1.84,-0.54 2.61,-1.45 0.99,-1.18 1.14,-2.47 1.03,-3.98 -0.23,-3.14 -1.65,-5.81 -3.49,-8.01 -1.15,-1.31 -2.42,-2.3 -4.14,-2.67 -0.7,-0.14 -1.63,-0.22 -2.68,-0.24zm-17.01 -203.75c-0.36,0.15 -0.71,0.32 -1.04,0.52 -2.51,1.45 -3.93,3.26 -4.59,6.1 -0.69,3 -0.28,5.4 1.5,7.92 0.18,0.26 0.38,0.51 0.58,0.75l3.55 -15.29zm74.95 -105.08c-0.29,1.42 -0.59,2.82 -0.89,4.2 -0.58,2.71 -2.06,9.42 -1.78,11.89 0.11,0.57 0.19,1.21 0.77,1.48 1.08,0.48 1.87,0.39 2.96,-0.04 1.45,-0.57 2.19,-1.6 2.82,-3 1.29,-2.86 1.31,-5.93 0.75,-8.7 -0.38,-1.64 -1,-3.16 -2.45,-4.39 -0.53,-0.44 -1.29,-0.93 -2.18,-1.44zm166.85 -239.62c3.58,4.51 8.7,9.59 14.64,10.63 4.39,0.76 7.98,-0.02 11.49,-2.8 3.46,-2.75 5.03,-6.04 5.26,-10.45 0.32,-6.04 -3.56,-12.3 -7.16,-16.84 -3.58,-4.52 -8.61,-9.43 -14.52,-10.5 -4.34,-0.78 -7.91,-0.01 -11.37,2.74 -3.51,2.79 -5.09,6.1 -5.35,10.57 -0.34,6.01 3.43,12.14 7.01,16.65zm438.35 -146.69c0,5.76 0.86,12.92 4.86,17.42 2.97,3.33 6.27,4.95 10.75,4.95 4.43,0 7.69,-1.6 10.61,-4.91 4.01,-4.55 4.86,-11.86 4.86,-17.66 0,-5.76 -0.88,-12.74 -4.86,-17.25 -2.92,-3.31 -6.18,-4.91 -10.61,-4.91 -4.48,0 -7.78,1.62 -10.75,4.95 -4,4.5 -4.86,11.65 -4.86,17.41zm255.72 63.62c-2.52,5.17 -4.89,11.99 -3.26,17.78 1.21,4.3 3.47,7.2 7.5,9.16 3.98,1.94 7.62,1.93 11.7,0.24 5.59,-2.33 9.56,-8.55 12.09,-13.76 2.52,-5.18 4.78,-11.84 3.18,-17.63 -1.17,-4.26 -3.4,-7.12 -7.39,-9.06 -4.02,-1.96 -7.7,-1.96 -11.83,-0.26 -5.57,2.29 -9.47,8.35 -11.99,13.53zm234.38 186.98c-4.7,3.35 -10.03,8.19 -11.37,14.06 -0.99,4.36 -0.4,7.98 2.2,11.63 2.57,3.61 5.77,5.34 10.16,5.8 6.02,0.63 12.48,-2.93 17.2,-6.29 4.69,-3.34 9.87,-8.11 11.24,-13.96 1,-4.29 0.4,-7.89 -2.16,-11.49 -2.6,-3.65 -5.82,-5.4 -10.26,-5.88 -5.99,-0.66 -12.31,2.79 -17.01,6.13z"/>
  </g>
  <path class="fil8" d="M314.49 1171.24l-6.06 -29.79c16.27,-3.98 30.33,-3.36 42.22,1.86 11.89,5.22 21.68,14.77 29.4,28.65 9.53,17.17 11.54,34.55 5.93,52.14 -5.57,17.57 -18.53,32.02 -38.89,43.35 -21.53,11.98 -41.34,15.73 -59.45,11.22 -18.06,-4.47 -32.14,-15.77 -42.21,-33.92 -8.82,-15.82 -11.29,-31.24 -7.42,-46.35 2.23,-8.95 7.75,-17.76 16.46,-26.49l20.52 22.42c-5.83,5.27 -9.36,11.41 -10.55,18.43 -1.18,6.99 0.18,13.97 4.02,20.93 5.34,9.58 13.09,15.43 23.32,17.57 10.19,2.15 23,-1.07 38.4,-9.65 16.38,-9.08 26.37,-18.49 30.03,-28.26 3.69,-9.72 2.89,-19.31 -2.35,-28.69 -3.84,-6.96 -9.39,-11.69 -16.57,-14.26 -7.19,-2.53 -16.13,-2.25 -26.8,0.84z"/>
  <path id="1" class="fil8" d="M190.19 1109.03l52.25 -15.22c-12.82,-5.8 -21.04,-14.78 -24.58,-27 -1.82,-6.25 -2.3,-12.26 -1.46,-17.97 0.86,-5.72 2.75,-10.4 5.59,-14 2.89,-3.6 6.39,-6.51 10.5,-8.73 4.12,-2.21 10.83,-4.68 20.05,-7.38l60.39 -17.58 7.94 27.25 -54.4 15.82c-10.77,3.14 -17.48,5.64 -20.08,7.56 -2.63,1.88 -4.39,4.35 -5.35,7.48 -0.95,3.14 -0.84,6.65 0.32,10.59 1.31,4.52 3.59,8.22 6.81,11.14 3.23,2.92 7.33,4.57 12.22,4.94 4.89,0.34 11.68,-0.75 20.35,-3.25l51.57 -15.01 7.92 27.21 -142.11 41.4 -7.93 -27.25z"/>
  <path id="2" class="fil8" d="M233.05 956.89l-2.65 26.04c-10.57,-2.1 -18.61,-6.45 -24.11,-13.12 -5.5,-6.66 -8.79,-16.96 -9.87,-30.85 -0.98,-12.61 -0.19,-22.12 2.31,-28.51 2.53,-6.42 5.99,-11.05 10.39,-13.93 4.4,-2.84 12.74,-4.77 25.01,-5.71l33.05 -2.26c9.37,-0.72 16.3,-1.68 20.67,-2.94 4.41,-1.26 9.05,-3.3 13.94,-6.18l2.17 27.98c-1.83,0.86 -4.54,1.99 -8.15,3.33 -1.62,0.63 -2.72,1.06 -3.25,1.3 5.09,4.45 9,9.34 11.78,14.67 2.78,5.33 4.39,11.09 4.88,17.32 0.85,11.03 -1.47,19.93 -6.96,26.74 -5.49,6.78 -12.79,10.57 -21.91,11.25 -6.04,0.47 -11.53,-0.57 -16.49,-3.08 -4.94,-2.52 -8.89,-6.27 -11.81,-11.29 -2.9,-5.02 -5.69,-12.36 -8.31,-22 -3.5,-13.02 -6.53,-22 -9.06,-26.92l-2.83 0.21c-5.44,0.4 -9.19,2.04 -11.33,4.9 -2.08,2.88 -2.86,8.05 -2.28,15.49 0.36,5.03 1.69,8.89 3.87,11.54 2.18,2.68 5.84,4.67 10.94,6.02zm20.03 -39.61c1.49,3.55 3.38,9.15 5.65,16.91 2.3,7.71 4.32,12.7 6.11,15 2.92,3.51 6.37,5.09 10.4,4.76 3.96,-0.29 7.27,-2.03 9.95,-5.21 2.64,-3.18 3.8,-7.04 3.43,-11.6 -0.36,-5.09 -2.45,-9.84 -6.15,-14.2 -2.8,-3.24 -6.09,-5.26 -9.88,-6.04 -2.45,-0.55 -7.11,-0.56 -13.86,-0.05l-5.65 0.43z"/>
  <path id="3" class="fil8" d="M202.27 799.67l22.53 1.87 -1.6 19.29 43.04 3.56c8.72,0.74 13.78,0.99 15.27,0.72 1.48,-0.24 2.73,-0.99 3.77,-2.22 1.07,-1.23 1.67,-2.78 1.82,-4.65 0.22,-2.61 -0.38,-6.47 -1.79,-11.59l22.13 -0.59c2.27,6.81 3.05,14.36 2.38,22.66 -0.44,5.1 -1.68,9.61 -3.7,13.56 -2.06,3.96 -4.52,6.77 -7.39,8.44 -2.87,1.7 -6.67,2.72 -11.36,3.07 -3.31,0.33 -9.96,0.08 -19.96,-0.74l-46.54 -3.86 -1.08 12.95 -22.54 -1.86 1.09 -12.96 -21.23 -1.78 -14.13 -29.69 37.69 3.12 1.6 -19.3z"/>
  <path id="4" class="fil8" d="M292.05 720.62l11.07 -26.42c9.23,5.87 15.62,13.26 19.1,22.13 3.5,8.86 3.9,19.02 1.19,30.5 -4.23,18.13 -13.31,30.18 -27.21,36.09 -11.11,4.67 -23.89,5.31 -38.37,1.91 -17.27,-4.06 -29.77,-11.76 -37.44,-23.08 -7.66,-11.32 -9.89,-23.9 -6.66,-37.72 3.63,-15.51 11.65,-26.56 24,-33.12 12.34,-6.57 29.03,-7.21 50.09,-1.87l-16.19 69.16c8.23,1.74 15.12,0.99 20.68,-2.2 5.55,-3.17 9.08,-7.96 10.53,-14.3 1.04,-4.34 0.7,-8.24 -0.95,-11.75 -1.68,-3.49 -4.95,-6.59 -9.84,-9.33zm-27.53 -8.1c-8.03,-1.7 -14.58,-1.06 -19.69,1.9 -5.07,2.96 -8.25,7.26 -9.56,12.88 -1.43,6.03 -0.4,11.51 3.07,16.49 3.48,4.96 8.95,8.28 16.5,9.98l9.68 -41.25z"/>
  <path id="5" class="fil8" d="M281.5 627.34l-14.94 21.5c-8.21,-6.93 -13.11,-14.63 -14.74,-23.15 -1.59,-8.49 0.49,-19.07 6.28,-31.77 5.25,-11.48 10.52,-19.43 15.81,-23.83 5.29,-4.39 10.57,-6.78 15.82,-7.18 5.23,-0.4 13.43,1.97 24.65,7.08l30.01 14.01c8.57,3.93 15.07,6.39 19.51,7.41 4.46,1.05 9.51,1.48 15.21,1.33l-11.65 25.53c-2,-0.11 -4.92,-0.43 -8.75,-0.99 -1.72,-0.25 -2.86,-0.42 -3.44,-0.47 2.28,6.39 3.33,12.57 3.2,18.56 -0.15,6 -1.52,11.83 -4.12,17.54 -4.56,10.04 -10.89,16.71 -19,20.02 -8.08,3.29 -16.28,3.05 -24.61,-0.73 -5.5,-2.54 -9.84,-6.07 -12.96,-10.71 -3.08,-4.58 -4.72,-9.77 -4.87,-15.56 -0.12,-5.79 0.98,-13.54 3.36,-23.29 3.21,-13.09 4.93,-22.42 5.09,-27.97l-2.57 -1.15c-4.96,-2.26 -9.07,-2.65 -12.28,-1.19 -3.24,1.51 -6.39,5.64 -9.49,12.46 -2.11,4.57 -2.82,8.56 -2.21,11.98 0.64,3.38 2.87,6.91 6.69,10.57zm36.66 -24.99c-0.39,3.82 -1.48,9.64 -3.2,17.5 -1.75,7.85 -2.36,13.22 -1.92,16.13 0.84,4.44 3.11,7.52 6.79,9.19 3.62,1.62 7.38,1.71 11.21,0.21 3.87,-1.51 6.77,-4.32 8.65,-8.49 2.12,-4.64 2.62,-9.77 1.49,-15.4 -0.91,-4.17 -2.83,-7.52 -5.75,-10.05 -1.89,-1.66 -5.95,-3.91 -12.11,-6.77l-5.16 -2.32z"/>
  <path id="6" class="fil8" d="M426.81 406l-14.5 24.41c-4.83,-2.93 -9.42,-4.09 -13.73,-3.4 -4.34,0.65 -8.23,2.97 -11.71,7.01 -4.61,5.31 -6.47,11.17 -5.54,17.54 0.9,6.37 5.69,13.3 14.32,20.82 9.62,8.33 17.79,12.6 24.55,12.8 6.76,0.21 12.51,-2.38 17.23,-7.83 3.51,-4.08 5.24,-8.38 5.2,-12.97 -0.07,-4.62 -2.45,-9.89 -7.18,-15.85l21.85 -17.9c7.76,10.54 11.42,21.06 10.95,31.53 -0.46,10.48 -5.2,20.93 -14.23,31.34 -10.3,11.84 -22.22,18.01 -35.77,18.58 -13.58,0.55 -26.99,-4.92 -40.2,-16.39 -13.35,-11.58 -20.67,-24.16 -21.98,-37.67 -1.32,-13.51 3.26,-26.3 13.7,-38.34 8.57,-9.86 17.49,-15.83 26.77,-17.97 9.31,-2.15 19.37,-0.7 30.27,4.29z"/>
  <path id="7" class="fil8" d="M460.36 402.03c-5.88,-7.33 -9.8,-15.89 -11.7,-25.67 -1.89,-9.77 -1,-19.12 2.72,-28.08 3.74,-8.95 9.68,-16.72 17.83,-23.28 12.65,-10.16 26.31,-14.41 40.97,-12.69 14.67,1.73 27.05,8.85 37.11,21.36 10.2,12.64 14.53,26.4 13.05,41.24 -1.47,14.86 -8.39,27.29 -20.75,37.23 -7.65,6.17 -16.34,10.29 -26.07,12.43 -9.72,2.11 -19.1,1.31 -28.09,-2.48 -8.99,-3.76 -17.34,-10.46 -25.07,-20.06zm23.59 -17.02c6.68,8.29 13.75,13.02 21.21,14.28 7.48,1.27 14.09,-0.44 19.85,-5.11 5.79,-4.62 8.85,-10.71 9.21,-18.26 0.36,-7.55 -2.84,-15.5 -9.58,-23.89 -6.57,-8.19 -13.58,-12.9 -21.03,-14.16 -7.45,-1.25 -14.07,0.42 -19.83,5.08 -5.75,4.62 -8.84,10.72 -9.24,18.3 -0.39,7.55 2.77,15.5 9.41,23.76z"/>
  <path id="8" class="fil8" d="M689.83 323.85l-25.84 11.76 -22.65 -49.82c-4.77,-10.56 -8.45,-17.13 -10.93,-19.71 -2.54,-2.61 -5.4,-4.18 -8.68,-4.79 -3.24,-0.56 -6.62,-0.07 -10.12,1.52 -4.48,2.03 -7.95,5.07 -10.38,9.15 -2.43,4.04 -3.38,8.43 -2.87,13.05 0.54,4.65 3.25,12.43 8.23,23.34l20.08 44.2 -25.84 11.77 -44.36 -97.65 23.97 -10.89 6.55 14.35c3.49,-14.91 11.72,-25.32 24.65,-31.16 5.71,-2.62 11.36,-3.94 17.01,-4.04 5.66,-0.09 10.41,0.89 14.29,2.97 3.87,2.09 7.19,4.94 9.99,8.58 2.78,3.61 5.9,9.18 9.32,16.72l27.58 60.65z"/>
  <path id="9" class="fil8" d="M869.1 285.22l-28.16 3.45 -6.66 -54.3c-1.41,-11.48 -2.93,-18.86 -4.55,-22.06 -1.62,-3.24 -3.9,-5.62 -6.83,-7.17 -2.93,-1.52 -6.31,-2.06 -10.1,-1.59 -4.89,0.59 -9.09,2.49 -12.65,5.63 -3.55,3.14 -5.76,6.99 -6.64,11.58 -0.9,4.58 -0.63,12.82 0.82,24.72l5.94 48.19 -28.17 3.45 -13.07 -106.38 26.16 -3.21 1.93 15.61c7.79,-13.17 18.76,-20.61 32.85,-22.34 6.2,-0.75 12,-0.35 17.45,1.28 5.41,1.58 9.65,3.96 12.71,7.13 3.08,3.14 5.39,6.86 6.97,11.14 1.55,4.27 2.86,10.51 3.87,18.74l8.13 66.13z"/>
  <path id="10" class="fil8" d="M891.45 230.2c0,-9.45 2.31,-18.58 6.97,-27.41 4.65,-8.86 11.23,-15.58 19.75,-20.23 8.51,-4.66 17.99,-7 28.51,-7 16.23,0 29.5,5.27 39.88,15.82 10.38,10.59 15.55,23.89 15.55,40.02 0,16.27 -5.24,29.75 -15.69,40.44 -10.48,10.69 -23.64,16.03 -39.54,16.03 -9.82,0 -19.2,-2.24 -28.13,-6.69 -8.89,-4.45 -15.68,-10.96 -20.33,-19.58 -4.66,-8.58 -6.97,-19.06 -6.97,-31.4zm29.17 1.51c0,10.66 2.51,18.83 7.55,24.48 5.06,5.69 11.27,8.51 18.68,8.51 7.38,0 13.58,-2.82 18.58,-8.51 5,-5.65 7.51,-13.89 7.51,-24.68 0,-10.52 -2.51,-18.62 -7.51,-24.27 -5,-5.69 -11.2,-8.51 -18.58,-8.51 -7.41,0 -13.62,2.82 -18.68,8.51 -5.04,5.65 -7.55,13.82 -7.55,24.47z"/>
  <path id="11" class="fil8" d="M1022.1 262.96l28.6 3.33c-0.27,5.66 0.97,10.33 3.78,14.08 2.82,3.74 7.45,6.5 13.88,8.26 7.08,1.92 12.74,2.09 17.03,0.47 2.89,-1.16 4.74,-3.27 5.58,-6.31 0.58,-2.07 0.39,-3.97 -0.52,-5.69 -1,-1.68 -3.74,-3.72 -8.17,-6.12 -20.72,-10.92 -33.49,-19.19 -38.29,-24.84 -6.63,-7.82 -8.58,-16.7 -5.89,-26.62 2.46,-8.94 8.08,-15.49 16.8,-19.69 8.76,-4.15 20.55,-4.19 35.4,-0.12 14.16,3.88 24.05,9.09 29.64,15.57 5.64,6.51 8.51,14.6 8.61,24.35l-27.08 -2.31c0.01,-4.34 -1.25,-7.98 -3.76,-10.97 -2.5,-2.98 -6.58,-5.27 -12.28,-6.82 -7.21,-1.99 -12.66,-2.4 -16.31,-1.24 -2.48,0.84 -4.02,2.45 -4.66,4.69 -0.5,1.96 -0.08,3.86 1.38,5.71 1.99,2.51 9.77,7.39 23.43,14.71 13.66,7.29 22.74,14.13 27.19,20.5 4.35,6.46 5.37,14.01 2.97,22.71 -2.59,9.49 -8.78,16.53 -18.57,21.18 -9.77,4.64 -22.42,4.83 -37.92,0.58 -14.09,-3.86 -24.43,-9.77 -31.11,-17.72 -6.63,-7.95 -9.87,-17.21 -9.73,-27.69z"/>
  <path id="12" class="fil8" d="M1151.89 276.46c4.13,-8.49 10.23,-15.65 18.25,-21.56 8.03,-5.86 16.89,-9.04 26.58,-9.49 9.68,-0.45 19.23,1.64 28.65,6.22 14.58,7.09 24.24,17.64 28.94,31.66 4.7,13.99 3.54,28.23 -3.52,42.68 -7.1,14.55 -17.68,24.34 -31.74,29.35 -14.09,5.01 -28.26,4.05 -42.54,-2.9 -8.83,-4.3 -16.27,-10.4 -22.35,-18.29 -6.07,-7.89 -9.31,-16.71 -9.73,-26.47 -0.39,-9.75 2.08,-20.14 7.46,-31.2zm25.48 14.08c-4.65,9.56 -5.95,17.97 -3.88,25.27 2.04,7.28 6.42,12.54 13.04,15.78 6.65,3.24 13.48,3.41 20.48,0.54 6.96,-2.89 12.81,-9.18 17.54,-18.83 4.57,-9.45 5.88,-17.79 3.84,-25.1 -2.04,-7.27 -6.39,-12.51 -13.04,-15.74 -6.66,-3.24 -13.49,-3.44 -20.48,-0.57 -7.03,2.89 -12.85,9.1 -17.5,18.65z"/>
  <path id="13" class="fil8" d="M1348.09 333.29l-13.58 18.11 -15.5 -11.66 -25.96 34.59c-5.26,7 -8.18,11.18 -8.74,12.56 -0.6,1.37 -0.64,2.85 -0.14,4.38 0.47,1.55 1.46,2.9 2.97,4.01 2.1,1.58 5.7,3.16 10.76,4.67l-11.28 19.08c-6.98,-1.7 -13.79,-5.06 -20.46,-10.07 -4.12,-3.1 -7.26,-6.54 -9.52,-10.37 -2.28,-3.85 -3.32,-7.44 -3.23,-10.78 0.1,-3.32 1.26,-7.07 3.46,-11.22 1.47,-3.02 5.23,-8.51 11.28,-16.53l28.09 -37.41 -10.41 -7.83 13.57 -18.1 10.42 7.82 12.82 -17.04 32.72 3.86 -22.77 30.31 15.5 11.62z"/>
  <path id="14" class="fil8" d="M1319.02 449.78l-20.7 -19.4 73.35 -78.22 19.23 18.01 -10.42 11.15c8.22,-2.2 14.41,-2.87 18.59,-2.07 4.21,0.79 7.98,2.77 11.32,5.87 4.72,4.42 8.04,9.98 9.95,16.68l-23.32 12.04c-1.38,-5.5 -3.55,-9.69 -6.53,-12.5 -2.92,-2.69 -6.1,-4.23 -9.62,-4.51 -3.52,-0.28 -7.82,1.09 -12.86,4.2 -5.08,3.07 -13.85,11.28 -26.33,24.61l-22.66 24.14z"/>
  <path id="15" class="fil8" d="M1399.45 448.58c7.65,-5.5 16.37,-8.99 26.26,-10.37 9.88,-1.39 19.17,-0.02 27.92,4.19 8.75,4.17 16.22,10.52 22.35,19.03 9.52,13.16 13.04,27.03 10.56,41.59 -2.47,14.57 -10.24,26.55 -23.26,36 -13.16,9.48 -27.13,13.1 -41.9,10.88 -14.77,-2.23 -26.83,-9.79 -36.1,-22.68 -5.78,-7.95 -9.47,-16.85 -11.1,-26.7 -1.59,-9.81 -0.29,-19.13 3.95,-27.92 4.2,-8.79 11.35,-16.8 21.32,-24.02zm15.81 24.46c-8.64,6.23 -13.75,13.07 -15.39,20.46 -1.62,7.39 -0.26,14.09 4.1,20.1 4.32,5.99 10.24,9.4 17.76,10.13 7.51,0.77 15.67,-2.02 24.38,-8.33 8.53,-6.13 13.57,-12.89 15.25,-20.28 1.62,-7.4 0.3,-14.07 -4.06,-20.07 -4.32,-6 -10.28,-9.4 -17.8,-10.16 -7.55,-0.81 -15.63,1.95 -24.24,8.15z"/>
  <path id="16" class="fil8" d="M1453.87 567.92l16.26 23.78c-4.47,3.48 -7.2,7.5 -8.16,12.09 -0.98,4.59 -0.01,9.86 2.85,15.87 3.18,6.64 6.8,11.02 10.84,13.18 2.77,1.42 5.59,1.47 8.44,0.11 1.93,-0.95 3.27,-2.33 3.94,-4.16 0.61,-1.87 0.35,-5.24 -0.75,-10.17 -5.35,-22.81 -7.48,-37.91 -6.39,-45.22 1.56,-10.14 6.99,-17.46 16.27,-21.92 8.35,-4.02 17,-4.11 25.89,-0.24 8.88,3.87 16.66,12.76 23.33,26.67 6.36,13.23 8.91,24.07 7.69,32.6 -1.22,8.49 -5.45,15.99 -12.71,22.45l-16.07 -21.96c3.29,-2.85 5.23,-6.2 5.83,-10.03 0.63,-3.83 -0.37,-8.45 -2.91,-13.77 -3.25,-6.74 -6.49,-11.14 -9.77,-13.11 -2.29,-1.33 -4.46,-1.45 -6.59,-0.44 -1.82,0.88 -2.95,2.46 -3.42,4.78 -0.6,3.14 0.83,12.23 4.28,27.34 3.47,15.12 4.24,26.45 2.36,34.01 -1.99,7.53 -7.06,13.25 -15.2,17.17 -8.83,4.26 -18.24,4.22 -28.17,-0.14 -9.92,-4.35 -18.39,-13.77 -25.34,-28.27 -6.32,-13.17 -8.67,-24.87 -7.02,-35.12 1.66,-10.21 6.5,-18.73 14.52,-25.5z"/>
  <path id="17" class="fil8" d="M1515.85 694.64l69.25 -29.96 33.09 -10.65 9.38 29.24 -33.08 10.61 -73.73 16.07 -4.91 -15.31zm-38.21 5.82l26.99 -8.67 8.67 27 -27 8.67 -8.66 -27z"/>
 </g>
</svg>
