<?xml version="1.0" encoding="UTF-8"?>
<!DOCTYPE svg PUBLIC "-//W3C//DTD SVG 1.1//EN" "http://www.w3.org/Graphics/SVG/1.1/DTD/svg11.dtd">
<!-- Creator: CorelDRAW 2020 (64-Bit) -->
<svg xmlns="http://www.w3.org/2000/svg" xml:space="preserve" width="49.1066mm" height="13.8852mm" version="1.1" style="shape-rendering:geometricPrecision; text-rendering:geometricPrecision; image-rendering:optimizeQuality; fill-rule:evenodd; clip-rule:evenodd"
viewBox="0 0 4910.66 1388.52"
 xmlns:xlink="http://www.w3.org/1999/xlink"
 xmlns:xodm="http://www.corel.com/coreldraw/odm/2003">
 <defs>
  <style type="text/css">
   <![CDATA[
    .fil4 {fill:#FEFEFE}
    .fil7 {fill:#FFF212}
    .fil5 {fill:#EC268F}
    .fil6 {fill:#0098DA}
    .fil0 {fill:#FEFEFE;fill-rule:nonzero}
    .fil2 {fill:#FFF212;fill-rule:nonzero}
    .fil1 {fill:#EC268F;fill-rule:nonzero}
    .fil3 {fill:#0098DA;fill-rule:nonzero}
   ]]>
  </style>
     <clipPath id="id0">
      <path d="M1338.14 149.31l1098.24 0 0 716.2 -1098.24 0 0 -716.2z"/>
     </clipPath>
     <clipPath id="id1">
      <path d="M2413.92 148.4l857.36 0 0 717.32 -857.36 0 0 -717.32z"/>
     </clipPath>
     <clipPath id="id2">
      <path d="M3249.21 149.4l878.56 0 0 716.1 -878.56 0 0 -716.1z"/>
     </clipPath>
     <clipPath id="id3">
      <path d="M4105.66 149.4l805 0 0 716.1 -805 0 0 -716.1z"/>
     </clipPath>
 </defs>
 <g id="Capa_x0020_1">
  <metadata id="CorelCorpID_0Corel-Layer"/>
  <g id="_2419195493024">
   <path class="fil0" d="M2734.04 862.01c19.08,-5.09 37.2,-7.64 54.37,-7.64 29.25,0 58.18,7 86.8,20.99 16.54,8.26 31.95,18.76 46.26,31.48 14.31,12.72 21.46,22.57 21.46,29.57 0,6.99 -2.54,10.48 -7.63,10.48 -6.99,0 -16.22,-5.72 -27.66,-17.16 -10.81,-10.81 -25.12,-20.67 -42.92,-29.57 -17.81,-8.91 -35.29,-14.95 -52.46,-18.12 -11.45,-1.27 -19.71,-1.91 -24.8,-1.91 -27.98,0 -55.01,6.99 -81.07,20.99 -26.08,13.98 -47.07,32.74 -62.96,56.27 -20.35,31.16 -30.52,63.58 -30.52,97.29 0,44.52 16.21,83.93 48.64,118.28 35.61,37.52 76.94,56.27 124,56.27 26.71,0 54.05,-6.99 82.03,-20.98 16.53,-8.9 32.74,-22.57 48.65,-41.02 15.89,-18.44 28.29,-38.79 37.2,-61.04 3.17,-6.36 4.44,-10.18 3.81,-11.45 -0.64,-1.27 -3.81,-1.9 -9.54,-1.9 -5.08,0 -8.9,1.27 -11.44,3.81 -2.55,2.55 -5.73,8.59 -9.54,18.12 -12.72,29.88 -31.96,52.94 -57.71,69.15 -25.75,16.22 -53.89,24.33 -84.41,24.33 -28.62,0 -55.33,-7.32 -80.13,-21.94 -24.8,-14.63 -44.19,-35.93 -58.18,-63.91 -8.26,-16.53 -12.4,-35.92 -12.4,-58.19 0,-11.44 1.91,-18.12 5.72,-20.02 1.27,-0.63 2.87,-0.95 4.78,-0.95 9.53,0 14.3,7.31 14.3,21.93 0,19.71 7.63,40.38 22.9,62 15.25,21.62 33.05,36.88 53.41,45.79 13.35,6.36 29.56,9.53 48.64,9.53 19.71,0 37.84,-3.81 54.37,-11.44 32.43,-14 57.55,-44.84 75.35,-92.52 1.91,-5.09 4.3,-8.12 7.16,-9.07 2.86,-0.95 10.33,-1.42 22.41,-1.42 12.09,0 19.23,-0.48 21.46,-1.44 2.23,-0.95 3.34,-3.97 3.34,-9.06l0 -10.49 -134.49 0 1.91 -12.4 0.96 -10.49 72.48 -1.91 31.48 0c28.61,0 44.2,1.27 46.73,3.81 4.46,4.46 6.68,15.9 6.68,34.34 0,12.72 -0.48,20.99 -1.42,24.8 -0.96,3.81 -3.35,6.04 -7.16,6.68 -4.46,1.27 -6.36,4.13 -5.72,8.58 0,1.91 0,3.5 0,4.78 0,8.89 -5.56,23.2 -16.7,42.92 -11.12,19.71 -22.41,35.29 -33.85,46.73 -17.81,17.8 -39.59,32.11 -65.35,42.92 -25.75,10.82 -51.34,16.22 -76.77,16.22 -5.1,0 -12.72,-0.63 -22.9,-1.91 -50.24,-7.63 -91.25,-28.29 -123.05,-62 -31.79,-33.7 -49.28,-75.35 -52.45,-124.95 0,-1.91 -0.16,-4.45 -0.48,-7.63 -0.32,-3.18 -0.48,-5.41 -0.48,-6.68 0,-44.5 13.52,-84.09 40.54,-118.74 27.03,-34.67 62.47,-58.03 106.35,-70.11zm360.56 123.99c3.81,-2.54 13.35,-3.81 28.61,-3.81 12.08,0 20.35,1.27 24.8,3.81 4.45,2.55 7.31,7.32 8.58,14.32 0.64,1.9 1.12,3.17 1.44,3.81 0.32,0.63 1.27,0.63 2.85,0 1.6,-0.64 3.98,-2.23 7.16,-4.77 0.64,-0.64 1.27,-1.11 1.91,-1.43 0.64,-0.32 1.27,-0.8 1.91,-1.44 10.17,-6.99 18.44,-10.49 24.8,-10.49 6.36,0 9.53,3.18 9.53,9.54 0,4.46 -3.01,9.54 -9.05,15.26 -6.05,5.73 -13.84,11.93 -23.38,18.6 -9.53,6.68 -14.94,10.33 -16.21,10.97 -7,5.09 -12.4,7.63 -16.22,7.63 -6.99,0 -10.49,-7.31 -10.49,-21.94 0,-12.71 -2.86,-19.07 -8.58,-19.07 -1.91,0 -3.34,0.32 -4.3,0.95 -0.95,0.64 -1.74,3.18 -2.38,7.63 -0.63,4.45 -0.95,10.65 -0.95,18.6 0,7.95 0,19.87 0,35.77l0 49.6 0 49.6c0,15.9 0,27.82 0,35.77 0,7.94 0.32,14.14 0.95,18.6 0.64,4.45 1.43,7 2.38,7.62 0.96,0.64 2.39,0.96 4.3,0.96 1.9,0 3.33,-0.48 4.29,-1.43 0.96,-0.95 1.91,-4.29 2.86,-10.01 0.95,-5.73 1.43,-13.36 1.43,-22.89 0,-9.55 0,-24.17 0,-43.88l0 -78.22 55.32 -41.97c43.24,-32.43 67.72,-48.64 73.44,-48.64 5.74,0 8.59,8.27 8.59,24.8 0,2.55 -0.16,6.68 -0.48,12.4 -0.31,5.72 -0.47,10.49 -0.47,14.31l-0.96 47.69 -30.52 0.95 -17.17 0c-9.53,0 -14.63,-1.59 -15.25,-4.76 -0.64,-1.28 -0.96,-2.55 -0.96,-3.83 0,-10.17 8.26,-15.25 24.8,-15.25l16.21 0 0 -38.16 -16.21 12.4c-5.72,4.45 -20.03,15.26 -42.92,32.44l-27.67 20.02 -1.91 83.94 -0.94 82.99 -62.01 0 -1.9 -132.59 0 -46.74c0,-57.86 1.59,-87.74 4.77,-89.66zm388.2 37.2c10.82,-3.18 17.82,-4.76 20.99,-4.76 3.19,0 6.68,1.27 10.49,3.81 3.19,1.27 4.78,3.81 4.78,7.63 0,6.36 -6.36,11.45 -19.08,15.26 -27.98,8.27 -46.74,22.26 -56.28,41.97 -5.08,10.17 -7.63,20.35 -7.63,30.53 0,16.53 6.04,31.47 18.12,44.82 12.08,13.35 27.67,21.94 46.75,25.75 6.98,1.28 11.44,2.71 13.34,4.3 1.91,1.58 2.87,4.61 2.87,9.06 0,5.08 -0.96,8.11 -2.87,9.06 -1.9,0.96 -7.62,1.12 -17.17,0.48 -23.52,-0.63 -43.71,-10.82 -60.56,-30.52 -16.85,-19.71 -25.28,-41.98 -25.28,-66.78 0,-4.44 0.64,-10.48 1.91,-18.12 2.54,-15.25 10.65,-29.88 24.32,-43.87 13.68,-13.99 28.77,-23.53 45.3,-28.62zm93.48 2.86c-25.43,-15.89 -49.6,-23.84 -72.49,-23.84 -12.08,0 -23.84,2.23 -35.29,6.67 -37.51,14.63 -61.68,41.97 -72.49,82.04 -1.91,8.9 -2.86,17.48 -2.86,25.75 0,29.89 11.13,56.28 33.39,79.17 22.25,22.88 48.96,34.34 80.12,34.34 22.89,0 46.09,-7.95 69.62,-23.85 10.82,-6.99 18.76,-10.49 23.85,-10.49 7.63,0 11.45,7.63 11.45,22.88 0,10.82 2.54,16.23 7.63,16.23 4.45,0 6.99,-5.25 7.63,-15.75 0.63,-10.49 0.95,-44.35 0.95,-101.57 0,-57.24 -0.32,-90.94 -0.95,-101.11 -0.64,-10.17 -2.86,-15.27 -6.68,-15.27 -5.72,0 -8.9,5.73 -9.54,17.18 -1.27,12.72 -4.76,19.07 -10.49,19.07 -4.45,0 -12.39,-3.82 -23.85,-11.45zm-113.5 -41.97c11.45,-4.44 25.76,-6.67 42.92,-6.67 24.8,0 44.52,3.82 59.14,11.44 11.44,5.1 17.48,7.63 18.12,7.63 1.91,0 3.18,-2.85 3.82,-8.57 0.64,-4.46 2.54,-7.16 5.72,-8.12 3.18,-0.95 12.08,-1.43 26.71,-1.43l31.47 0 0 279.48 -31.47 0c-15.26,0 -24.33,-0.48 -27.19,-1.44 -2.86,-0.95 -4.6,-4.29 -5.24,-10.01l-0.96 -10.49 -20.03 8.58c-17.17,7 -37.52,10.5 -61.04,10.5 -17.17,0 -31.48,-1.91 -42.92,-5.73 -27.99,-8.9 -50.72,-26.07 -68.2,-51.5 -17.49,-25.44 -26.24,-52.79 -26.24,-82.04 0,-11.44 1.28,-21.93 3.82,-31.47 12.09,-48.96 42.61,-82.35 91.57,-100.16zm375.81 -110.64c12.08,-5.72 25.44,-8.59 40.06,-8.59l8.58 0 25.76 0.96 0 62 -19.08 4.77c-38.78,10.17 -63.58,31.16 -74.4,62.95l-4.76 13.35 20.03 1.91 20.03 0.96c0,7.63 0.32,18.6 0.95,32.9 0.63,14.31 0.95,24.96 0.95,31.95l-41.96 0 0 21.95c0,20.35 -4.13,30.52 -12.4,30.52 -2.55,0 -4.45,-0.32 -5.73,-0.96 -4.45,-1.27 -6.67,-13.67 -6.67,-37.19 0,-19.08 1.27,-30.37 3.81,-33.87 2.54,-3.49 10.5,-5.24 23.85,-5.24 9.53,0 14.3,-2.86 14.3,-8.58 0,-5.73 -6.68,-8.91 -20.03,-9.55l-20.02 -0.95 0 -20.98c0.63,-20.99 8.42,-41.34 23.36,-61.04 14.95,-19.72 32.91,-32.76 53.89,-39.11 13.99,-4.45 20.99,-9.23 20.99,-14.31 0,-5.73 -3.5,-8.58 -10.49,-8.58 -9.54,0 -22.58,4.45 -39.11,13.34 -14.63,7 -26.07,14.95 -34.34,23.86 -8.26,8.89 -16.21,21.61 -23.85,38.14 -5.72,12.09 -9.05,24.65 -10.01,37.68 -0.95,13.03 -1.75,49.44 -2.39,109.22l-0.95 124 18.12 0c17.81,0 26.71,4.44 26.71,13.35 0,1.9 -0.32,3.49 -0.96,4.77 -1.26,3.81 -7.94,5.72 -20.02,5.72l-14.31 0 -32.43 -0.95 0 -137.36c0,-74.4 1.11,-120.17 3.34,-137.35 2.22,-17.17 9.06,-34.97 20.5,-53.41 15.27,-25.44 38.16,-44.2 68.68,-56.28zm175.51 103.01c1.27,-3.17 8.59,-4.77 21.93,-4.77l10.5 0 30.52 0.96 0 142.12 -20.98 0 -0.96 -60.09c-0.64,-27.35 -1.42,-44.03 -2.38,-50.08 -0.95,-6.04 -3.34,-9.06 -7.15,-9.06 -5.73,0 -8.59,38.79 -8.59,116.37l0 117.32 20.03 0.96c6.36,0.63 10.81,1.1 13.36,1.42 2.53,0.32 4.29,1.28 5.24,2.87 0.96,1.59 1.43,3.97 1.43,7.15 0,5.09 -1.43,8.1 -4.3,9.06 -2.85,0.96 -11.92,1.43 -27.17,1.43l-31.48 0 -0.96 -135.44c0,-91.57 0.32,-138.31 0.96,-140.22zm39.11 -61.04c-1.27,-4.45 -3.66,-6.84 -7.16,-7.16 -3.5,-0.31 -5.88,1.75 -7.15,6.2 -3.81,10.18 0.95,15.27 14.31,15.27 4.45,-1.28 6.68,-2.55 6.68,-3.81 -1.28,-0.64 -3.51,-4.14 -6.68,-10.5zm-30.52 -21.94c6.36,-6.36 13.98,-9.54 22.89,-9.54 8.89,0 16.53,3.18 22.89,9.54 6.99,7 10.48,14.94 10.48,23.85 0,5.72 -1.58,8.9 -4.76,9.53 -3.18,1.28 -3.18,3.19 0,5.73 3.82,2.54 5.08,6.36 3.82,11.45 -0.64,5.72 -8.59,8.9 -23.86,9.53l-9.53 0c-9.53,0 -16.85,-2.54 -21.93,-7.63 -7,-6.99 -10.5,-15.89 -10.5,-26.7 0,-10.18 3.5,-18.76 10.5,-25.76zm194.57 127.81c24.8,-27.97 58.51,-41.96 101.11,-41.96l12.4 0c19.71,1.91 39.59,8.43 59.61,19.55 20.03,11.13 30.04,21.14 30.04,30.05 0,0.63 0,0.95 0,0.95l-0.94 1.91c-1.91,4.45 -5.1,6.67 -9.55,6.67 -6.35,0 -14.93,-4.13 -25.75,-12.4 -20.34,-14.62 -42.28,-21.93 -65.81,-21.93 -7.63,0 -13.04,0.32 -16.21,0.95 -39.43,7.63 -69,29.89 -88.71,66.77 -7,13.99 -10.5,29.88 -10.5,47.69 0,18.44 3.82,35.3 11.45,50.55 12.09,23.53 30.53,41.97 55.33,55.32 10.17,5.1 24.8,7.64 43.87,7.64 23.53,0 41.33,-2.86 53.41,-8.59 11.45,-5.73 17.17,-9.54 17.17,-11.45 0,-1.26 -1.9,-3.49 -5.72,-6.67 -4.45,-3.18 -10.81,-2.54 -19.08,1.91 -10.17,5.08 -24.48,7.63 -42.92,7.63 -19.72,0 -35.93,-4.13 -48.65,-12.4 -26.07,-15.9 -40.69,-38.16 -43.87,-66.77 -1.28,-15.9 0,-24.48 3.82,-25.75 1.26,-0.64 2.86,-0.96 4.77,-0.96 3.81,0 7.15,1.91 10.01,5.72 2.86,3.82 4.29,8.27 4.29,13.36 0,7.63 3.34,16.53 10.02,26.71 6.68,10.17 14.46,18.12 23.36,23.84 12.09,8.26 24.17,12.4 36.25,12.4 10.18,0 22.26,-3.5 36.24,-10.49l22.9 -13.35 20.02 16.21c16.54,13.99 24.8,23.53 24.8,28.61 0,3.19 -1.9,6.68 -5.72,10.5 -22.25,24.16 -55.64,36.25 -100.14,36.25 -17.18,0 -33.07,-2.87 -47.7,-8.59 -26.7,-10.17 -48.49,-27.66 -65.33,-52.46 -16.86,-24.8 -25.28,-51.51 -25.28,-80.12 0,-12.08 1.9,-24.17 5.72,-36.25 7,-22.89 18.76,-43.24 35.29,-61.05zm418.73 1.91c10.81,-3.18 17.81,-4.76 20.98,-4.76 3.19,0 6.68,1.27 10.5,3.81 3.18,1.27 4.77,3.81 4.77,7.63 0,6.36 -6.36,11.45 -19.08,15.26 -27.98,8.27 -46.73,22.26 -56.28,41.97 -5.08,10.17 -7.63,20.35 -7.63,30.53 0,16.53 6.04,31.47 18.12,44.82 12.08,13.35 27.67,21.94 46.75,25.75 6.99,1.28 11.44,2.71 13.35,4.3 1.9,1.58 2.86,4.61 2.86,9.06 0,5.08 -0.96,8.11 -2.86,9.06 -1.91,0.96 -7.63,1.12 -17.18,0.48 -23.52,-0.63 -43.71,-10.82 -60.56,-30.52 -16.85,-19.71 -25.28,-41.98 -25.28,-66.78 0,-4.44 0.64,-10.48 1.91,-18.12 2.55,-15.25 10.65,-29.88 24.32,-43.87 13.68,-13.99 28.77,-23.53 45.31,-28.62zm93.48 2.86c-25.44,-15.89 -49.6,-23.84 -72.5,-23.84 -12.08,0 -23.84,2.23 -35.29,6.67 -37.51,14.63 -61.68,41.97 -72.48,82.04 -1.92,8.9 -2.87,17.48 -2.87,25.75 0,29.89 11.13,56.28 33.39,79.17 22.25,22.88 48.96,34.34 80.12,34.34 22.89,0 46.09,-7.95 69.63,-23.85 10.81,-6.99 18.76,-10.49 23.84,-10.49 7.64,0 11.45,7.63 11.45,22.88 0,10.82 2.55,16.23 7.63,16.23 4.45,0 7,-5.25 7.64,-15.75 0.62,-10.49 0.94,-44.35 0.94,-101.57 0,-57.24 -0.32,-90.94 -0.94,-101.11 -0.64,-10.17 -2.87,-15.27 -6.68,-15.27 -5.72,0 -8.91,5.73 -9.55,17.18 -1.27,12.72 -4.76,19.07 -10.49,19.07 -4.44,0 -12.39,-3.82 -23.84,-11.45zm-113.51 -41.97c11.45,-4.44 25.76,-6.67 42.92,-6.67 24.8,0 44.52,3.82 59.15,11.44 11.44,5.1 17.48,7.63 18.12,7.63 1.9,0 3.17,-2.85 3.81,-8.57 0.64,-4.46 2.55,-7.16 5.72,-8.12 3.19,-0.95 12.08,-1.43 26.71,-1.43l31.48 0 0 279.48 -31.48 0c-15.26,0 -24.32,-0.48 -27.19,-1.44 -2.85,-0.95 -4.6,-4.29 -5.24,-10.01l-0.96 -10.49 -20.03 8.58c-17.17,7 -37.52,10.5 -61.04,10.5 -17.17,0 -31.48,-1.91 -42.92,-5.73 -27.98,-8.9 -50.72,-26.07 -68.2,-51.5 -17.49,-25.44 -26.24,-52.79 -26.24,-82.04 0,-11.44 1.28,-21.93 3.83,-31.47 12.08,-48.96 42.6,-82.35 91.56,-100.16z"/>
   <path class="fil0" d="M3605.18 893.99l6.7 -4.89 13.97 0.14c6.22,0.1 10.2,0.21 11.95,0.36 1.75,0.14 2.8,0.55 3.15,1.22 0.65,1.25 -11.04,11.15 -35.07,29.68l-36.65 28.09 -14.5 0.29 -6.56 0c-5.41,0 -8.51,-0.29 -9.33,-0.87 -0.36,-0.19 -0.61,-0.43 -0.76,-0.72 -0.75,-1.44 3.5,-2.16 12.76,-2.16l10.03 0 33.31 -25.64c22.19,-17.09 33.25,-25.74 33.15,-25.93 0.15,-0.19 -0.18,-0.33 -1,-0.43 -0.82,-0.1 -1.74,-0.14 -2.77,-0.14 -2.32,0 -5.89,1.77 -10.73,5.32 -4.79,3.66 -8.72,5.48 -11.8,5.48 -1.28,0 -2.51,-0.39 -3.69,-1.15 -0.3,-0.1 -0.53,-0.29 -0.68,-0.58 -0.5,-0.96 2.33,-3.65 8.52,-8.07z"/>
   <g>
    <g style="clip-path:url(#id0)">
     <image x="1338.14" y="149.31" width="1098.24" height="716.2" xlink:href="wedelnetLogo_Images\wedelnetLogo_ImgID1.png"/>
    </g>
   </g>
   <path class="fil1" d="M1994.18 203.03c-1.79,-2.45 -4.89,-4.25 -7.98,-4.25l-110.67 0c-5.54,0 -10.56,4.25 -11.2,9.27l-57.46 313.57 -50.76 -313.57c-0.51,-6.19 -6.18,-9.92 -12.36,-9.27 -6.19,0.51 -9.8,6.7 -9.28,12.88l60.67 377.34c0.65,5.54 5.54,9.27 11.09,9.27 5.54,0 9.92,-4.38 10.56,-9.27l68.02 -368.07 87.22 0 -118.78 573.04 -14.82 0 -25.38 0c-17.26,0 -42,-7.48 -56.29,-72.27l-102.55 -513.65c-0.65,-5.02 -5.54,-9.92 -11.08,-9.27 -5.54,0 -9.93,3.6 -10.56,9.27l-52.57 315.51 -59.9 -315.51c-0.65,-5.02 -5.03,-9.27 -10.57,-9.27l-110.66 0c-3.09,0 -6.83,1.8 -8.63,4.25 -1.93,2.45 -3.1,6.18 -2.58,9.28l125.61 595.19c1.16,5.02 6.18,8.62 11.08,8.62l23.57 0 0.52 0 1.29 0 26.02 0c38.27,0 61.84,-28.34 75.37,-89.53l0 -0.64 14.81 -91.34c0.52,-6.19 -3.09,-12.37 -9.27,-12.89 -6.19,-0.64 -11.72,3.09 -12.37,9.15l-14.82 90.83c-14.17,64.15 -36.46,72.27 -53.72,72.27l-26.02 0 -1.29 0 -0.52 0 -14.94 0 -120.58 -573.04 87.86 0 69.31 368.07c0.52,4.89 5.54,9.27 11.08,9.27 5.54,0 10.56,-3.73 11.07,-9.27l52.57 -317.44 90.82 454.39 0 0.64c13.01,58.1 36.46,87.73 73.56,89.53l1.94 0 2.44 0 25.38 0 24.09 0c4.9,0 9.28,-3.6 10.57,-8.62l123.68 -595.84c0.51,-3.1 -0.65,-6.18 -2.59,-8.63zm381.73 613.09c6.19,0 11.08,-4.89 11.08,-11.08l0 -104.35c0,-6.18 -4.89,-11.07 -11.08,-11.07l-164.39 0 0 -65.71c0,-6.19 -4.89,-11.08 -11.08,-11.08 -6.18,0 -11.07,4.89 -11.07,11.08l0 76.78c0,6.19 4.89,11.08 11.07,11.08l164.4 0 0 82.2 -268.49 0 0 -185 0 -0.65c0,-25.38 21.13,-46.38 47.15,-46.38l190.79 0c6.07,0 11.09,-4.38 11.09,-10.56l0 -99.58c0,-6.19 -5.02,-11.08 -11.09,-11.08l-122.77 0 0 -116.2 164.39 0c6.19,0 11.08,-4.91 11.08,-11.09l0 -103.58c0,-6.18 -4.89,-11.07 -11.08,-11.07l-290.63 0c-6.19,0 -11.09,4.89 -11.09,11.07l0 294.64c0,6.19 4.9,11.34 11.09,11.34 6.18,0 11.07,-5.15 11.07,-11.34l0 -283.56 268.49 0 0 81.42 -164.4 0c-6.18,0 -11.07,4.9 -11.07,11.08l0 138.37c0,6.18 4.89,11.07 11.07,11.07l123.29 0 0 77.43 -181.52 0 -1.15 0c-37.23,1.29 -66.87,30.92 -66.87,67.51l0 0.51 0 196.72c0,6.19 4.9,11.08 11.09,11.08l290.63 0z"/>
   <g>
    <g style="clip-path:url(#id1)">
     <image x="2413.92" y="148.4" width="857.36" height="717.32" xlink:href="wedelnetLogo_Images\wedelnetLogo_ImgID2.png"/>
    </g>
   </g>
   <path class="fil2" d="M2743.85 237.43c-47.02,-37.1 -97.14,-39.56 -162.06,-39.56l-107.06 0c-6.06,0 -11.08,4.9 -11.08,11.08l0 439.18c0,56.17 31.43,63.64 58.74,63.64l64.94 0 33.36 0c48.82,0 67.38,-25.38 74.85,-47.02 14.3,-44.44 14.82,-149.57 14.82,-153.95 0,-179.32 -27.19,-209.74 -89.67,-209.74l-33.36 0c-6.19,0 -11.08,5.68 -11.08,11.86l0 315.38c0,6.18 4.89,11.07 11.08,11.07 6.18,0 10.56,-4.89 10.56,-11.07l0 -304.3 22.8 0c36.45,0 67.38,-0.64 67.38,186.8 0,36.46 -2.45,114.4 -13.53,147.25 -9.92,28.34 -35.3,31.44 -53.85,31.44l-33.36 0 -0.65 0 -64.29 0c-22.28,0 -36.46,-3.1 -36.46,-41.36l0 -428.1 95.86 0c62.35,0 106.92,2.58 148.41,35.3 65.44,51.41 79.74,161.43 79.74,244.39 0,123.67 -26.02,208.32 -78.45,259.08 -18.05,16.1 -52.05,35.17 -107.06,35.17l-149.7 0c-6.06,0 -11.34,5.02 -11.34,11.2 0,6.06 5.28,11.08 11.34,11.08l149.7 0c62.48,0 100.87,-22.28 121.87,-41.35 57.46,-55.14 85.28,-145.32 85.28,-275.18 0,-126.25 -30.27,-217.21 -87.73,-262.29zm466.87 578.69c6.19,0 11.09,-4.89 11.09,-11.08l0 -104.35c0,-6.18 -4.9,-11.07 -11.09,-11.07l-164.38 0 0 -65.71c0,-6.19 -4.89,-11.08 -11.08,-11.08 -6.18,0 -11.08,4.89 -11.08,11.08l0 76.78c0,6.19 4.9,11.08 11.08,11.08l164.39 0 0 82.2 -268.49 0 0 -185 0 -0.65c0,-25.38 21.14,-46.38 47.16,-46.38l190.79 0c6.06,0 11.08,-4.38 11.08,-10.56l0 -99.58c0,-6.19 -5.02,-11.08 -11.08,-11.08l-122.77 0 0 -116.2 164.38 0c6.19,0 11.09,-4.91 11.09,-11.09l0 -103.58c0,-6.18 -4.9,-11.07 -11.09,-11.07l-290.63 0c-6.19,0 -11.08,4.89 -11.08,11.07l0 294.64c0,6.19 4.89,11.34 11.08,11.34 6.18,0 11.07,-5.15 11.07,-11.34l0 -283.56 268.49 0 0 81.42 -164.39 0c-6.18,0 -11.08,4.9 -11.08,11.08l0 138.37c0,6.18 4.9,11.07 11.08,11.07l123.29 0 0 77.43 -181.52 0 -1.16 0c-37.23,1.29 -66.86,30.92 -66.86,67.51l0 0.51 0 196.72c0,6.19 4.89,11.08 11.08,11.08l290.63 0z"/>
   <g>
    <g style="clip-path:url(#id2)">
     <image x="3249.21" y="149.4" width="878.56" height="716.1" xlink:href="wedelnetLogo_Images\wedelnetLogo_ImgID3.png"/>
    </g>
   </g>
   <path class="fil0" d="M3562.44 816.12c6.18,0 11.07,-4.89 11.07,-11.08l0 -109.76c0,-6.18 -4.89,-11.07 -11.07,-11.07l-205.23 0c-22.16,0 -36.46,-3.1 -36.46,-41.49l0 -421.79 90.82 0 0.65 402.72c0,6.18 4.89,11.09 11.08,11.09 6.18,0 11.07,-4.91 11.07,-11.09l-0.51 -413.8c0,-6.18 -5.02,-11.07 -11.21,-11.07l-112.98 0c-6.19,0 -11.08,4.89 -11.08,11.07l0 432.87c0,56.3 31.43,63.64 58.62,63.64l194.14 0 0 87.61 -241.68 0c-6.19,0 -10.05,4.89 -10.05,11.07 0,6.19 3.86,11.08 10.05,11.08l252.77 0zm187.69 -595.19c30.28,0 41.36,9.93 55.02,34.02l252.89 458.11 0.64 1.16c0.52,1.29 2.44,2.57 3.6,3.09 1.29,0.65 3.1,1.29 4.38,1.29l3.74 0c1.16,0 2.45,-1.29 3.61,-1.81 1.29,-0.64 2.45,-1.92 3.09,-3.08 0.65,-1.29 1.29,-3.1 1.29,-4.38l0 -1.81 0 -497.67c0,-6.18 -4.38,-11.07 -10.57,-11.07l-118.91 0c-6.18,0 -11.08,4.89 -11.08,11.07l0 140.81c0,6.19 4.9,11.35 11.08,11.35 6.19,0 11.09,-5.16 11.09,-11.35l0 -129.73 96.75 0 0 443.95 -232.54 -420.36c-15.98,-28.48 -33.88,-45.74 -74.08,-45.74l-87.98 0c-6.19,0 -11.09,4.89 -11.09,11.07l0 595.19c0,3.1 1.16,6.19 3.1,7.99 1.8,1.94 4.89,3.09 7.99,3.09l115.16 0c6.19,0 11.08,-4.89 11.08,-11.08l0 -335.21 150.61 288.32 0 0.52 12.36 19.2c18.04,27.17 40.33,38.25 77.56,38.25l38.9 0c6.19,0 10.32,-4.89 10.32,-11.08 0,-6.18 -4.13,-11.07 -10.32,-11.07l-38.9 0c-34.79,0 -46.51,-9.92 -58.36,-27.84l-12.37 -19.18 -170.96 -327.11 -1.28 -1.29c-0.64,-1.28 -1.81,-2.44 -3.1,-3.08 -1.16,-0.65 -3.08,-1.29 -4.24,-1.29l-4.38 0c-1.29,0 -2.45,1.29 -3.74,1.93 -1.17,0.65 -2.45,1.81 -3.09,3.09 -0.65,1.16 -1.16,3.1 -1.16,4.26l0 1.92 0 368.59 -93.02 0 0 -573.04 76.91 0z"/>
   <g>
    <g style="clip-path:url(#id3)">
     <image x="4105.66" y="149.4" width="805" height="716.1" xlink:href="wedelnetLogo_Images\wedelnetLogo_ImgID4.png"/>
    </g>
   </g>
   <path class="fil3" d="M4456.76 816.12c6.19,0 11.08,-4.89 11.08,-11.08l0 -104.35c0,-6.18 -4.89,-11.07 -11.08,-11.07l-164.39 0 0 -65.71c0,-6.19 -4.89,-11.08 -11.08,-11.08 -6.18,0 -11.07,4.89 -11.07,11.08l0 76.78c0,6.19 4.89,11.08 11.07,11.08l164.39 0 0 82.2 -268.48 0 0 -185 0 -0.65c0,-25.38 21.13,-46.38 47.15,-46.38l190.79 0c6.06,0 11.09,-4.38 11.09,-10.56l0 -99.58c0,-6.19 -5.03,-11.08 -11.09,-11.08l-122.77 0 0 -116.2 164.39 0c6.19,0 11.08,-4.91 11.08,-11.09l0 -103.58c0,-6.18 -4.89,-11.07 -11.08,-11.07l-290.64 0c-6.19,0 -11.08,4.89 -11.08,11.07l0 294.64c0,6.19 4.89,11.34 11.08,11.34 6.18,0 11.08,-5.15 11.08,-11.34l0 -283.56 268.48 0 0 81.42 -164.39 0c-6.18,0 -11.07,4.9 -11.07,11.08l0 138.37c0,6.18 4.89,11.07 11.07,11.07l123.29 0 0 77.43 -181.52 0 -1.16 0c-37.23,1.29 -66.86,30.92 -66.86,67.51l0 0.51 0 196.72c0,6.19 4.89,11.08 11.08,11.08l290.64 0zm301.46 0c6.19,0 11.08,-4.89 11.08,-11.08l0 -433.63c0,-56.3 -30.92,-63.65 -58.23,-63.65l-144.29 0 0 -86.83 272.35 0 0 89.28 -17.91 0c-6.18,0 -10.82,4.9 -10.82,11.08 0,6.18 4.64,11.21 10.82,11.21l28.98 0c6.19,0 11.08,-5.03 11.08,-11.21l0 -111.44c0,-6.18 -4.89,-11.07 -11.08,-11.07l-294.49 0c-6.19,0 -11.09,4.89 -11.09,11.07l0 109c0,6.18 4.9,11.08 11.09,11.08l155.36 0c21.77,0 36.07,3.08 36.07,41.48l0 422.56 -90.7 0 0 -401.56c0,-6.18 -4.89,-10.31 -11.07,-10.31 -6.19,0 -11.08,4.13 -11.08,10.31l0 412.63c0,6.19 4.89,11.08 11.08,11.08l112.85 0z"/>
   <path class="fil4" d="M891.74 699.73l350.16 0c-5.78,319.67 -263.81,577.71 -583.48,583.49l-1.79 0.02 0 -353.73c127.64,-0.98 231.27,-102.83 235.11,-229.78z"/>
   <path class="fil5" d="M594.57 94.21c2.44,0 4.86,0.06 7.3,0.08l0 361.05c-130.95,0 -237.1,106.15 -237.1,237.1l-364.73 0c-0.01,-1.22 -0.05,-2.43 -0.05,-3.65 0,-328.38 266.2,-594.58 594.58,-594.58z"/>
   <path class="fil6" d="M654.76 3.02l0.26 0c327.04,0.15 592.3,264.32 594.27,590.93l-378.8 0c-37.4,-81.78 -119.92,-138.61 -215.73,-138.61l0 -452.32z"/>
   <path class="fil7" d="M603.73 1385.5l-0.26 0c-327.03,-0.15 -592.3,-264.32 -594.26,-590.93l378.63 0c38.16,79.82 119.65,134.97 214.03,134.97l1.86 -0.03 0 455.99z"/>
  </g>
 </g>
</svg>
