<?xml version="1.0" encoding="UTF-8"?>
<!DOCTYPE svg PUBLIC "-//W3C//DTD SVG 1.1//EN" "http://www.w3.org/Graphics/SVG/1.1/DTD/svg11.dtd">
<!-- Creator: CorelDRAW 2020 (64-Bit) -->
<svg xmlns="http://www.w3.org/2000/svg" xml:space="preserve" width="6.3498mm" height="6.3498mm" version="1.1" style="shape-rendering:geometricPrecision; text-rendering:geometricPrecision; image-rendering:optimizeQuality; fill-rule:evenodd; clip-rule:evenodd"
viewBox="0 0 634.98 634.98"
 xmlns:xlink="http://www.w3.org/1999/xlink"
 xmlns:xodm="http://www.corel.com/coreldraw/odm/2003">
 <defs>
  <style type="text/css">
   <![CDATA[
    .fil0 {fill:#39CE35;fill-rule:nonzero}
   ]]>
  </style>
    <clipPath id="id0">
     <path d="M88.34 96.76l449.85 0 0 449.91 -449.85 0 0 -449.91z"/>
    </clipPath>
    <clipPath id="id1">
     <path d="M406.28 389.25l0 0 0 0 0 0 0 0c2.43,-6.85 3.24,-13.1 3.24,-16.78 0,3.68 -0.81,9.93 -3.24,16.78zm-145.21 -82.68c0,-2.4 0.86,-4.49 1.75,-5.98 0.94,-1.53 1.92,-2.62 2.64,-3.52 2.77,-3.39 5.2,-5.6 7.42,-8.19l0 0c-2.22,2.59 -4.65,4.8 -7.42,8.19 -0.72,0.9 -1.7,1.99 -2.64,3.52 -0.89,1.49 -1.75,3.58 -1.75,5.98zm11.77 -17.65c1.27,-1.47 2.17,-2.5 2.81,-3.4 0.68,-0.93 1.19,-1.74 1.87,-3.17l0.05 -0.1 0.04 -0.06c0.21,-0.4 0.26,-0.72 0.26,-1.18 0,0 0,-0.03 0,-0.06 0,0.03 0,0.06 0,0.06 0,0.46 -0.05,0.78 -0.26,1.18l-0.04 0.06 -0.05 0.1c-0.68,1.43 -1.19,2.24 -1.87,3.17 -0.64,0.9 -1.54,1.93 -2.81,3.4l0 0 0 0z"/>
    </clipPath>
    <clipPath id="id2">
     <path d="M406.28 389.26c0,-0.01 0,-0.01 0,-0.02l0 0c0,0.01 0,0.01 0,0.02l0 0z"/>
    </clipPath>
    <clipPath id="id3">
     <path d="M313.34 494.77c-34.36,0 -66.24,-9.97 -93.19,-27.25l-71.77 22.9 23.3 -69.4 0 0c-19.85,-28.13 -31.4,-62.39 -31.4,-99.31l0 0c0,-95.46 77.5,-173.05 172.96,-173.05l5.03 0 0 0.1c93.09,2.67 168.02,79.17 168.02,172.95l0 0c0,95.46 -77.59,173.06 -172.95,173.06zm-91.61 -38.4l1.97 1.38c25.77,16.98 56.47,26.85 89.64,26.85 44.91,0 85.58,-18.26 115.1,-47.78 29.42,-29.52 47.68,-70.19 47.68,-115.11l0 0c0,-44.91 -18.26,-85.58 -47.68,-115.1 -29.52,-29.52 -70.19,-47.78 -115.1,-47.78l0 0 0 -5.03 0 5.03 -2.18 0c-44.12,0.59 -84,18.76 -113.03,47.78 -29.51,29.52 -47.78,70.19 -47.78,115.1l0 0c0,35.64 11.55,68.61 31,95.46l1.58 2.18 -18.56 55.38 57.36 -18.36zm146.79 -35.54c-0.1,0 -0.1,0 -0.1,0 -4.94,0 -11.06,-0.79 -19.15,-2.87 -8.19,-2.17 -18.46,-5.72 -31.99,-11.25 -36.03,-15 -62.48,-44.72 -76.01,-62.19 -4.54,-5.83 -7.6,-10.27 -8.98,-12.34 -0.4,-0.59 -0.69,-0.99 -0.69,-0.99l0 0 -0.1 -0.1c-0.49,-0.79 -2.17,-2.96 -4.25,-6.12 -2.07,-3.06 -4.54,-7.2 -7,-12.04 -4.84,-9.68 -9.58,-22.11 -9.58,-35.44l0 0c-0.1,-9.68 1.78,-17.67 4.44,-24.09 2.67,-6.51 6.12,-11.35 9.08,-14.9 2.08,-2.37 3.85,-4.25 5.04,-5.43l0 0 0 0 0 0c2.76,-2.77 6.12,-4.64 9.77,-5.83 3.56,-1.18 7.31,-1.68 11.06,-1.68 2.17,0 4.14,0.1 5.92,0.2 1.38,0 2.77,0.1 4.44,0.4 1.68,0.39 3.56,1.18 5.04,2.46 1.08,0.89 1.97,1.88 2.66,3.06 1.09,1.58 1.98,3.36 2.87,5.43 3.55,8.59 11.55,28.14 14.31,34.46 0.3,0.88 0.59,1.48 0.69,1.67l0 0 0 0c0.89,1.88 1.98,4.45 2.07,7.8 0,0 0,0 0,0 0,1.78 -0.39,3.85 -1.38,5.73 -0.89,1.87 -1.87,3.45 -2.86,4.74 -1.09,1.38 -2.07,2.56 -3.26,3.95l0 0 0 0.09c-2.76,3.06 -5.03,5.24 -7.2,7.9l-0.1 0.1 0 0.1c-0.79,0.89 -1.39,1.58 -1.68,2.07 -0.4,0.59 -0.4,0.69 -0.4,0.89l0 0c0,0.2 0.1,0.59 0.6,1.58l0 0 0 0c2.76,4.64 12.43,20.34 26.25,32.68l0 0 0 0c13.63,12.04 25.18,17.86 32.29,21.02 2.36,0.99 4.24,1.78 5.72,2.37l0 0c0.89,0.4 1.88,0.59 2.77,0.59 0,0 0,0 0.09,0 1.48,0 2.57,-0.49 3.26,-1.28 1.68,-1.78 3.65,-4.34 5.83,-7.21 2.17,-2.96 4.54,-6.31 6.91,-9.67l0 0 0 0c1.48,-2.07 3.25,-3.75 5.33,-4.94 2.07,-1.08 4.34,-1.67 6.51,-1.67 0,0 0.1,0 0.1,0 2.07,0 4.05,0.49 5.92,1.18 0.89,0.3 1.78,0.59 2.87,1.09 1.18,0.59 2.56,1.18 4.04,1.87 2.97,1.38 6.62,3.06 10.17,4.84 7.21,3.45 14.42,7.11 16.98,8.29l0 0 0 0 0 0c1.78,0.89 3.36,1.68 4.84,2.37 1.38,0.79 2.76,1.48 4.15,2.57 0.88,0.69 1.87,1.68 2.46,2.86l0 0 0 0c0.4,0.69 0.6,1.28 0.79,1.88 0.2,0.49 0.3,1.08 0.4,1.67 0.1,1.09 0.2,2.37 0.2,3.76l0 0c0,5.03 -0.99,12.14 -3.85,20.13l0 0 0 0c-2.67,7.31 -8.4,13.13 -15.11,17.67 -6.71,4.55 -14.41,7.8 -21.52,9.28 -2.86,0.69 -6.32,1.29 -10.66,1.29zm-128.83 -95.66c0.3,0.39 0.5,0.69 0.89,1.28 0.4,0.5 0.89,1.19 1.48,2.08 1.19,1.67 2.77,3.94 4.74,6.61 4.05,5.33 9.67,12.44 16.78,20.04 14.12,15.2 33.96,32.38 57.65,42.15 13.13,5.43 23,8.79 30.61,10.76 7.5,1.98 12.73,2.57 16.58,2.57 3.46,0 6.02,-0.4 8.59,-0.99 5.72,-1.18 12.44,-4.05 17.97,-7.8 5.62,-3.75 9.87,-8.49 11.35,-12.63 0,0 0,0 0,0l0 0 0 0c2.37,-6.81 3.16,-13.13 3.16,-16.78 0,0 0,0 0,0l0 0c0,-0.1 0,-0.2 0,-0.2 0,-0.99 0,-1.78 -0.1,-2.17 -0.2,-0.2 -0.59,-0.4 -1.19,-0.69 -1.28,-0.79 -3.35,-1.68 -5.92,-2.97l0 0c-2.17,-1.08 -8,-3.95 -14.12,-6.91 -6.21,-3.06 -12.93,-6.22 -16.58,-7.8 -0.99,-0.49 -1.88,-0.78 -2.17,-0.98l0 0 -0.1 0c-0.99,-0.4 -1.88,-0.5 -2.47,-0.5 0,0 0,0 0,0 -0.69,0 -1.08,0.1 -1.68,0.4 -0.49,0.3 -1.18,0.89 -1.97,1.97l-0.1 0c-2.27,3.26 -4.64,6.62 -6.91,9.68 -2.27,3.16 -4.44,5.92 -6.61,8.19l0 0 0 0c-2.87,3.16 -6.91,4.44 -10.67,4.44 0,0 0,0 0,0 -2.37,0 -4.64,-0.39 -6.81,-1.38l0 0 0 0.1 0 0c-1.18,-0.59 -3.26,-1.38 -5.82,-2.47 -2.67,-1.18 -5.73,-2.56 -9.28,-4.54 -7.21,-3.85 -15.99,-9.57 -25.67,-18.16l0 0 0 0 0 0c-15.2,-13.63 -25.27,-30.11 -28.23,-35.15l0 0 0 0c-1.28,-2.17 -1.98,-4.44 -1.98,-6.61 0,0 0,-0.1 0,-0.1l0 0c0,0 0,0 0,0 0,-2.47 0.79,-4.54 1.68,-6.02 0.99,-1.48 1.98,-2.67 2.67,-3.55 2.76,-3.36 5.23,-5.53 7.4,-8.2l0 0 0 0.1 0 0c1.29,-1.48 2.17,-2.47 2.77,-3.45 0.69,-0.89 1.28,-1.68 1.87,-3.16l0.1 -0.1 0 0c0.2,-0.5 0.3,-0.79 0.3,-1.19 0,0 0,-0.1 0,-0.1 0,-0.79 -0.4,-2.07 -1.09,-3.35l0 0 0 0c-0.2,-0.5 -0.49,-1.09 -0.89,-2.08 -0.39,-0.88 -0.89,-2.07 -1.48,-3.45 -1.18,-2.76 -2.57,-6.32 -4.14,-10.17 -3.16,-7.5 -6.62,-15.99 -8.69,-20.83 -0.79,-1.97 -1.48,-3.26 -1.98,-3.95 -0.59,-0.69 -0.69,-0.79 -0.88,-0.89 -0.1,0 -0.3,-0.09 -0.7,-0.19 -0.49,-0.1 -1.38,-0.1 -2.56,-0.2l-0.1 0 0 0c-1.68,-0.1 -3.46,-0.2 -5.33,-0.2 0,0 0,0 0,0 -2.77,0 -5.53,0.4 -7.9,1.19 -2.37,0.79 -4.34,1.97 -5.63,3.35l-0.1 0c-1.18,1.29 -2.76,2.87 -4.44,4.84 -1.68,1.98 -3.45,4.44 -5.13,7.4 -3.26,5.83 -6.12,13.92 -6.12,25.08 0,0 0,0.1 0,0.1 0,8.09 2.27,16.38 5.33,23.69 3.06,7.4 6.81,13.82 9.67,18.16 1.88,2.97 3.36,4.84 3.95,5.73zm29.72 -24.88l0 0zm136.92 88.95l0 0 0 0c0,0 0,0 0,0l0 0 0 0 0 0zm-70.29 -24.98c0,0 0,0 0,0l0 0 -0.1 0 0.1 0zm-50.05 -91.02c0,0 0,0 0,0l0 0 0 0 0 0z"/>
    </clipPath>
 </defs>
 <g id="Capa_x0020_1">
  <metadata id="CorelCorpID_0Corel-Layer"/>
  <g id="_2419309548800">
   <g style="clip-path:url(#id0)">
    <image x="88.34" y="96.76" width="449.85" height="449.91" xlink:href="whatsapp_Images\whatsapp_ImgID1.png"/>
   </g>
  </g>
  <g id="_2419309549280">
   <path class="fil0" d="M411.06 390.94l-4.78 -1.7c-1.41,4.16 -5.67,8.87 -11.26,12.61 -5.55,3.77 -12.32,6.62 -18,7.83 -2.63,0.55 -5.11,1.01 -8.6,1.01 -3.88,0 -9.07,-0.59 -16.62,-2.57 -7.55,-1.98 -17.44,-5.34 -30.61,-10.81 -23.68,-9.79 -43.51,-26.95 -57.63,-42.13 -7.06,-7.59 -12.69,-14.67 -16.71,-20.03 -2.01,-2.69 -3.61,-4.94 -4.8,-6.64 -0.59,-0.84 -1.07,-1.55 -1.45,-2.1 -0.4,-0.57 -0.66,-0.94 -0.95,-1.33l-4.03 3.07 4.1 -2.98c-0.63,-0.86 -2.07,-2.8 -3.98,-5.71 -2.85,-4.34 -6.65,-10.76 -9.69,-18.15 -3.05,-7.38 -5.31,-15.71 -5.3,-23.82 0.02,-11.19 2.8,-19.2 6.1,-25.12 1.65,-2.96 3.44,-5.38 5.12,-7.37 1.69,-2 3.24,-3.55 4.51,-4.84l0.01 -0.01c1.3,-1.35 3.26,-2.51 5.66,-3.29 2.39,-0.8 5.18,-1.21 7.9,-1.2 1.92,0 3.65,0.08 5.34,0.18l0.04 0 0.03 0c1.2,0.05 2.08,0.11 2.59,0.21 0.39,0.08 0.56,0.15 0.69,0.2 0.16,0.1 0.35,0.18 0.87,0.87 0.5,0.67 1.21,1.93 2.02,3.9 2.02,4.88 5.51,13.35 8.64,20.91 1.56,3.77 3.04,7.32 4.2,10.09 0.58,1.39 1.08,2.58 1.48,3.51 0.4,0.94 0.67,1.57 0.89,2.04l0.01 0.02 0.01 0.02c0.65,1.3 1.05,2.6 1.03,3.4 -0.01,0.46 -0.08,0.77 -0.28,1.18l-0.04 0.07 -0.03 0.08c-0.68,1.42 -1.2,2.26 -1.87,3.18 -0.68,0.91 -1.56,1.93 -2.82,3.4l0.02 -0.03c-2.23,2.59 -4.69,4.83 -7.44,8.26l3.95 3.16 -3.84 -3.3c-0.76,0.89 -1.78,2.01 -2.71,3.57 -0.93,1.53 -1.76,3.63 -1.75,6.05 -0.01,2.25 0.7,4.54 1.96,6.69l0.01 0.02 0.01 0c2.98,5.04 13.05,21.53 28.22,35.08l0.03 0.02 -0.02 -0.01c9.7,8.61 18.53,14.34 25.66,18.21 3.56,1.93 6.7,3.4 9.28,4.52 2.58,1.12 4.63,1.92 5.88,2.44l-0.02 -0.01c2.15,0.9 4.44,1.38 6.77,1.38 3.77,0.02 7.78,-1.33 10.72,-4.44l0.01 -0.01 0.02 -0.02c2.12,-2.29 4.29,-5.09 6.56,-8.17 2.27,-3.08 4.61,-6.42 6.96,-9.7l0.02 -0.01c0.79,-1.13 1.48,-1.68 2.02,-1.98 0.55,-0.3 1,-0.41 1.66,-0.42 0.63,0 1.46,0.15 2.48,0.52l0.05 0.02 0.05 0.02c0.31,0.11 1.14,0.44 2.17,0.9 3.69,1.61 10.35,4.79 16.54,7.8 6.21,3.02 12.01,5.9 14.15,6.97l0.01 0c2.57,1.28 4.63,2.2 5.91,2.9 0.64,0.35 1.06,0.64 1.25,0.79l0.14 0.13 0.54 -0.49 -0.63 0.36 0.09 0.13 0.54 -0.49 -0.63 0.36 0.01 0.01 0.01 0.03 2.32 -1.34 -2.49 0.98 0.17 0.36 2.32 -1.34 -2.49 0.98 0.87 -0.34 -0.9 0.27 0.03 0.07 0.87 -0.34 -0.9 0.27c0.04,0.05 0.23,1.17 0.21,2.67 0.01,3.69 -0.82,9.98 -3.24,16.84l0 -0.02 4.78 1.7 4.78 1.68c2.8,-8 3.81,-15.16 3.81,-20.2 0,-1.38 -0.07,-2.61 -0.23,-3.74 -0.09,-0.57 -0.2,-1.12 -0.36,-1.69 -0.16,-0.57 -0.36,-1.15 -0.76,-1.86l0.02 0.04c-0.69,-1.22 -1.6,-2.17 -2.49,-2.89 -1.37,-1.1 -2.74,-1.82 -4.21,-2.56 -1.48,-0.73 -3.06,-1.46 -4.83,-2.34l0.01 0c-2.5,-1.24 -9.73,-4.83 -16.94,-8.32 -3.61,-1.74 -7.2,-3.46 -10.21,-4.85 -1.5,-0.7 -2.86,-1.31 -4.01,-1.82 -1.16,-0.5 -2.08,-0.89 -2.9,-1.18l-1.67 4.79 1.77 -4.75c-1.88,-0.7 -3.89,-1.16 -6.01,-1.16 -2.2,-0.01 -4.52,0.53 -6.58,1.69 -2.08,1.16 -3.87,2.87 -5.36,4.96l0.01 -0.01c-2.38,3.33 -4.72,6.65 -6.89,9.59 -2.16,2.94 -4.18,5.52 -5.82,7.28l0.03 -0.03c-0.75,0.79 -1.85,1.26 -3.36,1.27 -0.91,0 -1.91,-0.2 -2.84,-0.59l-0.03 -0.01 0.02 0c-1.47,-0.61 -3.35,-1.33 -5.74,-2.37 -7.11,-3.1 -18.61,-8.92 -32.25,-21.02l0 0.01c-13.82,-12.3 -23.53,-28.04 -26.23,-32.66l0.01 0.02c-0.56,-0.99 -0.58,-1.41 -0.59,-1.59 0.01,-0.18 0.02,-0.33 0.32,-0.86 0.3,-0.51 0.9,-1.24 1.69,-2.16l0.06 -0.06 0.06 -0.08c2.15,-2.71 4.46,-4.81 7.2,-7.95l0.02 -0.03 0 0c1.19,-1.4 2.22,-2.55 3.25,-3.94 1.03,-1.38 1.98,-2.96 2.89,-4.89l-4.58 -2.16 4.51 2.31c0.99,-1.92 1.39,-3.97 1.39,-5.8 -0.03,-3.31 -1.14,-5.93 -2.04,-7.81l0.02 0.03c-0.07,-0.14 -0.36,-0.8 -0.74,-1.68 -2.69,-6.31 -10.72,-25.85 -14.27,-34.4 -0.89,-2.16 -1.77,-3.92 -2.82,-5.47 -0.77,-1.15 -1.66,-2.18 -2.69,-3.04 -1.55,-1.31 -3.41,-2.1 -5.06,-2.44 -1.66,-0.36 -3.11,-0.42 -4.52,-0.48l-0.22 5.06 0.28 -5.06c-1.73,-0.09 -3.69,-0.2 -5.91,-0.2 -3.7,0.01 -7.49,0.53 -11.08,1.71 -3.57,1.19 -6.99,3.04 -9.74,5.85l0.01 -0.01c-1.19,1.22 -3.02,3.03 -5.01,5.4 -3.01,3.56 -6.44,8.44 -9.09,14.89 -2.66,6.44 -4.52,14.45 -4.52,24.13 0.03,13.29 4.74,25.76 9.62,35.42 2.45,4.84 4.96,8.96 7.03,12.11 2.04,3.12 3.69,5.33 4.25,6.11l0.03 0.04 0.04 0.05c0.02,0.01 0.3,0.42 0.67,0.95 1.43,2.06 4.51,6.56 9,12.37 13.55,17.44 39.96,47.14 76.05,62.13 13.47,5.59 23.75,9.11 31.92,11.25 8.16,2.14 14.25,2.91 19.19,2.91 4.42,0 7.89,-0.64 10.72,-1.25 7.15,-1.53 14.84,-4.81 21.55,-9.33 6.68,-4.56 12.5,-10.32 15.14,-17.62l0.01 -0.01 -4.78 -1.68zm-97.76 -237.17l0 -5.07 -0.07 0 0 5.07 5.07 0 0 -5.08 -5.07 0c-95.41,0.01 -172.98,77.61 -172.99,173.03 0,37.83 12.22,72.94 32.96,101.43l4.09 -2.98 -4.8 -1.61 -24.11 71.87 74.07 -23.66 -1.54 -4.83 -2.79 4.22c27.34,18.1 60.02,28.6 95.18,28.6 95.41,-0.01 172.97,-77.61 172.98,-173.04 -0.01,-95.42 -77.57,-173.01 -172.98,-173.02l0 10.13c44.91,0.01 85.6,18.26 115.1,47.77 29.5,29.51 47.75,70.2 47.75,115.12 0,44.92 -18.25,85.62 -47.75,115.14 -29.5,29.51 -70.19,47.76 -115.1,47.76 -33.14,0 -63.83,-9.86 -89.59,-26.9l-2.03 -1.34 -57.34 18.31 18.59 -55.39 -1.54 -2.11c-19.52,-26.83 -31.02,-59.84 -31.02,-95.47 0,-44.92 18.26,-85.61 47.75,-115.13 29.51,-29.51 70.2,-47.77 115.11,-47.77l0 -5.07 -5.07 0 0 5.08 5.14 0 0 -5.06z"/>
   <path class="fil0" d="M411.06 390.94l-4.78 -1.7c-1.41,4.16 -5.67,8.87 -11.26,12.61 -5.55,3.77 -12.32,6.62 -18,7.83 -2.63,0.55 -5.11,1.01 -8.6,1.01 -3.88,0 -9.07,-0.59 -16.62,-2.57 -7.55,-1.98 -17.44,-5.34 -30.61,-10.81 -23.68,-9.79 -43.51,-26.95 -57.63,-42.13 -7.06,-7.59 -12.69,-14.67 -16.71,-20.03 -2.01,-2.69 -3.61,-4.94 -4.8,-6.64 -0.59,-0.84 -1.07,-1.55 -1.45,-2.1 -0.4,-0.57 -0.66,-0.94 -0.95,-1.33l-4.03 3.07 4.1 -2.98c-0.63,-0.86 -2.07,-2.8 -3.98,-5.71 -2.85,-4.34 -6.65,-10.76 -9.69,-18.15 -3.05,-7.38 -5.31,-15.71 -5.3,-23.82 0.02,-11.19 2.8,-19.2 6.1,-25.12 1.65,-2.96 3.44,-5.38 5.12,-7.37 1.69,-2 3.24,-3.55 4.51,-4.84l0.01 -0.01c1.3,-1.35 3.26,-2.51 5.66,-3.29 2.39,-0.8 5.18,-1.21 7.9,-1.2 1.92,0 3.65,0.08 5.34,0.18l0.04 0 0.03 0c1.2,0.05 2.08,0.11 2.59,0.21 0.39,0.08 0.56,0.15 0.69,0.2 0.16,0.1 0.35,0.18 0.87,0.87 0.5,0.67 1.21,1.93 2.02,3.9 2.02,4.88 5.51,13.35 8.64,20.91 1.56,3.77 3.04,7.32 4.2,10.09 0.58,1.39 1.08,2.58 1.48,3.51 0.4,0.94 0.67,1.57 0.89,2.04l0.01 0.02 0.01 0.02c0.65,1.3 1.05,2.6 1.03,3.4 -0.01,0.46 -0.08,0.77 -0.28,1.18l-0.04 0.07 -0.03 0.08c-0.68,1.42 -1.2,2.26 -1.87,3.18 -0.68,0.91 -1.56,1.93 -2.82,3.4l0.02 -0.03c-2.23,2.59 -4.69,4.83 -7.44,8.26l3.95 3.16 -3.84 -3.3c-0.76,0.89 -1.78,2.01 -2.71,3.57 -0.93,1.53 -1.76,3.63 -1.75,6.05 -0.01,2.25 0.7,4.54 1.96,6.69l0.01 0.02 0.01 0c2.98,5.04 13.05,21.53 28.22,35.08l0.03 0.02 -0.02 -0.01c9.7,8.61 18.53,14.34 25.66,18.21 3.56,1.93 6.7,3.4 9.28,4.52 2.58,1.12 4.63,1.92 5.88,2.44l-0.02 -0.01c2.15,0.9 4.44,1.38 6.77,1.38 3.77,0.02 7.78,-1.33 10.72,-4.44l0.01 -0.01 0.02 -0.02c2.12,-2.29 4.29,-5.09 6.56,-8.17 2.27,-3.08 4.61,-6.42 6.96,-9.7l0.02 -0.01c0.79,-1.13 1.48,-1.68 2.02,-1.98 0.55,-0.3 1,-0.41 1.66,-0.42 0.63,0 1.46,0.15 2.48,0.52l0.05 0.02 0.05 0.02c0.31,0.11 1.14,0.44 2.17,0.9 3.69,1.61 10.35,4.79 16.54,7.8 6.21,3.02 12.01,5.9 14.15,6.97l0.01 0c2.57,1.28 4.63,2.2 5.91,2.9 0.64,0.35 1.06,0.64 1.25,0.79l0.14 0.13 0.54 -0.49 -0.63 0.36 0.09 0.13 0.54 -0.49 -0.63 0.36 0.01 0.01 0.01 0.03 2.32 -1.34 -2.49 0.98 0.17 0.36 2.32 -1.34 -2.49 0.98 0.87 -0.34 -0.9 0.27 0.03 0.07 0.87 -0.34 -0.9 0.27c0.04,0.05 0.23,1.17 0.21,2.67 0.01,3.69 -0.82,9.98 -3.24,16.84l0 -0.02 4.78 1.7 4.78 1.68c2.8,-8 3.81,-15.16 3.81,-20.2 0,-1.38 -0.07,-2.61 -0.23,-3.74 -0.09,-0.57 -0.2,-1.12 -0.36,-1.69 -0.16,-0.57 -0.36,-1.15 -0.76,-1.86l0.02 0.04c-0.69,-1.22 -1.6,-2.17 -2.49,-2.89 -1.37,-1.1 -2.74,-1.82 -4.21,-2.56 -1.48,-0.73 -3.06,-1.46 -4.83,-2.34l0.01 0c-2.5,-1.24 -9.73,-4.83 -16.94,-8.32 -3.61,-1.74 -7.2,-3.46 -10.21,-4.85 -1.5,-0.7 -2.86,-1.31 -4.01,-1.82 -1.16,-0.5 -2.08,-0.89 -2.9,-1.18l-1.67 4.79 1.77 -4.75c-1.88,-0.7 -3.89,-1.16 -6.01,-1.16 -2.2,-0.01 -4.52,0.53 -6.58,1.69 -2.08,1.16 -3.87,2.87 -5.36,4.96l0.01 -0.01c-2.38,3.33 -4.72,6.65 -6.89,9.59 -2.16,2.94 -4.18,5.52 -5.82,7.28l0.03 -0.03c-0.75,0.79 -1.85,1.26 -3.36,1.27 -0.91,0 -1.91,-0.2 -2.84,-0.59l-0.03 -0.01 0.02 0c-1.47,-0.61 -3.35,-1.33 -5.74,-2.37 -7.11,-3.1 -18.61,-8.92 -32.25,-21.02l0 0.01c-13.82,-12.3 -23.53,-28.04 -26.23,-32.66l0.01 0.02c-0.56,-0.99 -0.58,-1.41 -0.59,-1.59 0.01,-0.18 0.02,-0.33 0.32,-0.86 0.3,-0.51 0.9,-1.24 1.69,-2.16l0.06 -0.06 0.06 -0.08c2.15,-2.71 4.46,-4.81 7.2,-7.95l0.02 -0.03 0 0c1.19,-1.4 2.22,-2.55 3.25,-3.94 1.03,-1.38 1.98,-2.96 2.89,-4.89l-4.58 -2.16 4.51 2.31c0.99,-1.92 1.39,-3.97 1.39,-5.8 -0.03,-3.31 -1.14,-5.93 -2.04,-7.81l0.02 0.03c-0.07,-0.14 -0.36,-0.8 -0.74,-1.68 -2.69,-6.31 -10.72,-25.85 -14.27,-34.4 -0.89,-2.16 -1.77,-3.92 -2.82,-5.47 -0.77,-1.15 -1.66,-2.18 -2.69,-3.04 -1.55,-1.31 -3.41,-2.1 -5.06,-2.44 -1.66,-0.36 -3.11,-0.42 -4.52,-0.48l-0.22 5.06 0.28 -5.06c-1.73,-0.09 -3.69,-0.2 -5.91,-0.2 -3.7,0.01 -7.49,0.53 -11.08,1.71 -3.57,1.19 -6.99,3.04 -9.74,5.85l0.01 -0.01c-1.19,1.22 -3.02,3.03 -5.01,5.4 -3.01,3.56 -6.44,8.44 -9.09,14.89 -2.66,6.44 -4.52,14.45 -4.52,24.13 0.03,13.29 4.74,25.76 9.62,35.42 2.45,4.84 4.96,8.96 7.03,12.11 2.04,3.12 3.69,5.33 4.25,6.11l0.03 0.04 0.04 0.05c0.02,0.01 0.3,0.42 0.67,0.95 1.43,2.06 4.51,6.56 9,12.37 13.55,17.44 39.96,47.14 76.05,62.13 13.47,5.59 23.75,9.11 31.92,11.25 8.16,2.14 14.25,2.91 19.19,2.91 4.42,0 7.89,-0.64 10.72,-1.25 7.15,-1.53 14.84,-4.81 21.55,-9.33 6.68,-4.56 12.5,-10.32 15.14,-17.62l0.01 -0.01 -4.78 -1.68zm-97.76 -237.17l0 -5.07 -0.07 0 0 5.07 5.07 0 0 -5.08 -5.07 0c-95.41,0.01 -172.98,77.61 -172.99,173.03 0,37.83 12.22,72.94 32.96,101.43l4.09 -2.98 -4.8 -1.61 -24.11 71.87 74.07 -23.66 -1.54 -4.83 -2.79 4.22c27.34,18.1 60.02,28.6 95.18,28.6 95.41,-0.01 172.97,-77.61 172.98,-173.04 -0.01,-95.42 -77.57,-173.01 -172.98,-173.02l0 10.13c44.91,0.01 85.6,18.26 115.1,47.77 29.5,29.51 47.75,70.2 47.75,115.12 0,44.92 -18.25,85.62 -47.75,115.14 -29.5,29.51 -70.19,47.76 -115.1,47.76 -33.14,0 -63.83,-9.86 -89.59,-26.9l-2.03 -1.34 -57.34 18.31 18.59 -55.39 -1.54 -2.11c-19.52,-26.83 -31.02,-59.84 -31.02,-95.47 0,-44.92 18.26,-85.61 47.75,-115.13 29.51,-29.51 70.2,-47.77 115.11,-47.77l0 -5.07 -5.07 0 0 5.08 5.14 0 0 -5.06z"/>
   <g style="clip-path:url(#id1)">
    <image x="260.31" y="280.17" width="150.36" height="109.83" xlink:href="whatsapp_Images\whatsapp_ImgID2.png"/>
   </g>
   <g style="clip-path:url(#id2)">
    <image x="405.53" y="387.91" width="2.77" height="3.11" xlink:href="whatsapp_Images\whatsapp_ImgID3.png"/>
   </g>
   <g style="clip-path:url(#id3)">
    <image x="139.4" y="147.77" width="348.28" height="348.28" xlink:href="whatsapp_Images\whatsapp_ImgID4.png"/>
   </g>
   <path class="fil0" d="M411.06 390.94l-0.4 -0.14c-3.94,11.21 -19.94,20.72 -32.68,23.42 -2.7,0.58 -5.64,1.12 -9.56,1.12 -8.73,0 -22.39,-2.69 -49.01,-13.74 -24.59,-10.18 -44.85,-27.79 -59.25,-43.26 -14.41,-15.49 -22.94,-28.79 -24.2,-30.45l-0.34 0.26 0.34 -0.25c-2.38,-3.26 -19.86,-26.52 -19.85,-50.41 0.01,-23.96 12.13,-35.55 17.05,-40.58 3.92,-4.04 10.54,-5.9 16.89,-5.9 2.06,0 3.9,0.1 5.6,0.19 2.48,0.11 4.23,0.24 5.75,1.24 1.52,0.99 2.92,2.93 4.52,6.81 4.05,9.77 13.94,33.84 15.12,36.33 0.76,1.58 1.49,3.48 1.49,5.43 0,1.09 -0.22,2.19 -0.78,3.29l-0.01 0.01 0 0.01c-1.56,3.31 -2.9,4.73 -5.36,7.61 -2.46,2.84 -4.85,5.02 -7.33,8.12l0.33 0.26 -0.32 -0.28c-1.54,1.8 -3.33,3.8 -3.34,6.6 0,1.3 0.4,2.74 1.33,4.35 2.86,4.85 12.77,21 27.32,33.97 18.83,16.72 34.11,22.1 39.53,24.36 1.58,0.67 3.28,1.02 4.96,1.02 2.73,0 5.41,-0.94 7.35,-2.99 3.79,-4.09 8.41,-10.81 13.15,-17.42 2.24,-3.13 4.74,-4.33 7.47,-4.34 1.31,0 2.68,0.29 4.1,0.81l0.01 0.01c4.46,1.55 28.48,13.43 33.41,15.89 4.95,2.45 8.17,3.68 9.19,5.57 0.34,0.57 0.64,2.23 0.63,4.56 0,4.31 -0.91,11 -3.51,18.38l0.4 0.14 0.4 0.14c2.63,-7.48 3.55,-14.24 3.55,-18.66 -0.01,-2.41 -0.25,-4.09 -0.74,-4.98 -1.35,-2.33 -4.64,-3.44 -9.55,-5.9 -4.96,-2.48 -28.89,-14.33 -33.51,-15.94l-0.14 0.4 0.15 -0.4c-1.48,-0.55 -2.95,-0.86 -4.39,-0.86 -3,-0.01 -5.82,1.39 -8.15,4.69 -4.75,6.61 -9.37,13.33 -13.09,17.33 -1.75,1.85 -4.19,2.72 -6.73,2.72 -1.56,0 -3.15,-0.33 -4.64,-0.95 -5.44,-2.27 -20.54,-7.58 -39.29,-24.21 -14.44,-12.87 -24.31,-28.95 -27.15,-33.77 -0.88,-1.51 -1.21,-2.79 -1.21,-3.92 -0.01,-2.4 1.56,-4.23 3.13,-6.05l0.01 0 0 -0.01c2.43,-3.04 4.81,-5.2 7.31,-8.09 2.44,-2.86 3.88,-4.4 5.48,-7.8l-0.38 -0.18 0.38 0.19c0.62,-1.23 0.87,-2.48 0.87,-3.68 0,-2.16 -0.79,-4.17 -1.57,-5.79 -1.14,-2.42 -11.06,-26.53 -15.1,-36.3 -1.63,-3.93 -3.08,-6.04 -4.84,-7.19 -1.76,-1.15 -3.71,-1.26 -6.17,-1.37 -1.7,-0.1 -3.55,-0.19 -5.64,-0.19 -6.5,0 -13.32,1.88 -17.49,6.15 -4.93,5.02 -17.31,16.91 -17.29,41.17 0.01,24.29 17.63,47.61 20.01,50.91l0 0 0.01 0c1.21,1.59 9.81,15 24.26,30.51 14.45,15.53 34.78,33.22 59.54,43.47 26.66,11.07 40.41,13.8 49.33,13.8 4,0 7.01,-0.55 9.74,-1.14 12.96,-2.78 29.11,-12.26 33.3,-23.96l-0.4 -0.14zm-97.76 -237.17l0 -0.42 -0.07 0 0 0.42 0.42 0 0 -0.44 -0.42 0c-92.83,0.01 -168.35,75.54 -168.35,168.39 0,36.82 11.89,70.97 32.07,98.7l0.34 -0.25 -0.4 -0.14 -21.19 63.19 65.34 -20.88 -0.13 -0.4 -0.23 0.35c26.62,17.62 58.38,27.82 92.62,27.82 92.84,0 168.34,-75.53 168.34,-168.39 0,-92.85 -75.5,-168.37 -168.34,-168.37l0 0.84c46.19,0 88.06,18.79 118.38,49.12 30.33,30.34 49.11,72.22 49.11,118.41 0,46.2 -18.78,88.08 -49.11,118.42 -30.32,30.34 -72.19,49.13 -118.38,49.13 -34.07,0 -65.67,-10.16 -92.16,-27.68l-0.16 -0.11 -63.95 20.43 20.73 -61.81 -0.13 -0.18c-20.08,-27.59 -31.9,-61.56 -31.9,-98.2 0,-46.19 18.78,-88.07 49.11,-118.41 30.33,-30.34 72.21,-49.13 118.39,-49.13l0 -0.43 -0.42 0 0 0.44 0.49 0 0 -0.42z"/>
  </g>
 </g>
</svg>
